<?xml version="1.0" encoding="UTF-8"?>
<svg version="1.1" xmlns="http://www.w3.org/2000/svg" width="498" height="486">
<path d="M0 0 C164.34 0 328.68 0 498 0 C498 160.38 498 320.76 498 486 C333.66 486 169.32 486 0 486 C0 325.62 0 165.24 0 0 Z " fill="#5C5C5B" transform="translate(0,0)"/>
<path d="M0 0 C0.71592316 -0.00067474 1.43184631 -0.00134949 2.16946411 -0.00204468 C12.94245384 0.0140891 23.08571134 0.53420441 33.5625 3.25 C34.54984131 3.48348145 34.54984131 3.48348145 35.55712891 3.72167969 C59.52570051 9.4249589 80.9703729 22.1465431 98.5625 39.25 C99.7690625 40.36375 99.7690625 40.36375 101 41.5 C123.34878257 62.73134344 139.02784548 95.00988234 140.76953125 125.92480469 C140.86620333 129.90950696 140.89590496 133.88955166 140.875 137.875 C140.87350952 138.57832458 140.87201904 139.28164917 140.8704834 140.00628662 C140.82862937 151.00608637 140.1498886 161.53081868 137.5625 172.25 C137.29566406 173.41144531 137.02882813 174.57289063 136.75390625 175.76953125 C131.04680221 197.96382476 120.06446049 217.50087048 104.5625 234.25 C104.03672363 234.82492187 103.51094727 235.39984375 102.96923828 235.9921875 C91.62518659 248.27124374 78.62238176 257.92579521 63.5625 265.25 C62.43328125 265.81203125 61.3040625 266.3740625 60.140625 266.953125 C44.76581102 274.29793449 27.10876134 279.39322886 10.015625 279.41796875 C9.20438171 279.42129715 8.39313843 279.42462555 7.55731201 279.42805481 C5.84615644 279.43309874 4.13499112 279.43546392 2.42382812 279.43530273 C-0.16553376 279.43748152 -2.75446375 279.45564295 -5.34375 279.47460938 C-13.58262338 279.50349154 -21.4412398 279.48472525 -29.4375 277.25 C-30.12054199 277.07831299 -30.80358398 276.90662598 -31.50732422 276.72973633 C-55.22433919 270.6163088 -76.48878127 260.06528836 -94.4375 243.25 C-95.00952148 242.72035645 -95.58154297 242.19071289 -96.17089844 241.64501953 C-119.43370403 219.91149276 -131.89220865 194.20537793 -138.4375 163.25 C-138.61780762 162.49356201 -138.79811523 161.73712402 -138.98388672 160.95776367 C-139.57499548 157.42924522 -139.63823219 153.93895275 -139.67578125 150.37109375 C-139.69047203 149.23049248 -139.69047203 149.23049248 -139.70545959 148.06684875 C-140.03036846 116.29391616 -140.03036846 116.29391616 -135.4375 101.25 C-135.11604004 100.16332031 -135.11604004 100.16332031 -134.78808594 99.0546875 C-123.88994278 63.13999156 -99.06843253 33.71762881 -66.18359375 15.890625 C-62.32695579 13.87768625 -58.40950926 12.02304687 -54.4375 10.25 C-53.36371094 9.76917969 -52.28992188 9.28835937 -51.18359375 8.79296875 C-34.76948913 1.99313317 -17.61364359 0.01489494 0 0 Z " fill="#010101" transform="translate(251.4375,29.75)"/>
<path d="M0 0 C2.25987782 -0.03652377 4.50987161 -0.14235171 6.76733398 -0.24975586 C17.284699 -0.51807532 17.284699 -0.51807532 21.97924805 2.83959961 C24.27914921 5.36930058 26.20477328 7.92950737 28.09350586 10.77563477 C28.97764863 11.89226488 29.86929493 13.0030605 30.77319336 14.10375977 C31.49764648 15.06797852 32.22209961 16.03219727 32.96850586 17.02563477 C33.810251 18.13684455 34.65272556 19.2475021 35.49584961 20.35766602 C35.9210791 20.91921387 36.34630859 21.48076172 36.78442383 22.05932617 C39.00283522 24.96783645 41.26686383 27.8401714 43.53100586 30.71313477 C44.22045288 31.58905273 44.22045288 31.58905273 44.92382812 32.48266602 C46.31320976 34.24739205 47.70331767 36.01154408 49.09350586 37.77563477 C55.23624007 45.57460876 61.35650031 53.39043318 67.44897461 61.22875977 C68.41208557 62.46746826 68.41208557 62.46746826 69.39465332 63.73120117 C70.96107729 65.74590376 72.52735869 67.760717 74.09350586 69.77563477 C74.09715149 68.97019226 74.10079712 68.16474976 74.10455322 67.3348999 C74.14242834 59.74234447 74.19927474 52.15027997 74.2774086 44.55804062 C74.31690932 40.65480626 74.34908476 36.75179835 74.36450195 32.84838867 C74.37965193 29.08095067 74.41406658 25.31413514 74.46181488 21.54697418 C74.47664606 20.1101345 74.48454788 18.67320595 74.48538971 17.23628998 C74.4877555 15.22293229 74.51709651 13.20966108 74.54760742 11.1965332 C74.56093109 9.47777985 74.56093109 9.47777985 74.57452393 7.7243042 C75.20589576 4.13707562 76.18855346 2.92002849 79.09350586 0.77563477 C85.38227679 0.59827812 88.54831149 3.23320669 92.90600586 7.27563477 C93.51420166 7.81808838 94.12239746 8.36054199 94.74902344 8.91943359 C96.54339087 10.5245966 98.32002519 12.14746245 100.09350586 13.77563477 C101.82186073 15.33903269 103.55092849 16.90164321 105.28100586 18.46313477 C106.07249023 19.18243164 106.86397461 19.90172852 107.67944336 20.64282227 C110.19876512 22.86863081 112.78622837 24.98174307 115.40600586 27.08813477 C120.21775734 30.97689866 124.7378613 35.1017819 129.25024414 39.3269043 C133.49778359 43.28177099 137.91907177 46.96483831 142.44116211 50.60375977 C155.8499415 61.58355556 155.8499415 61.58355556 156.40600586 66.58813477 C155.93616614 71.38049986 153.2685858 73.75130521 149.71850586 76.84594727 C148.41913086 77.86301758 148.41913086 77.86301758 147.09350586 78.90063477 C142.94359888 82.22276775 138.97750576 85.65309437 135.09350586 89.27563477 C130.46160255 93.58618951 125.67222898 97.62629036 120.74194336 101.59594727 C118.12075467 103.75320875 115.60196305 105.98874477 113.09350586 108.27563477 C108.82392258 112.1674982 104.40029958 115.81424574 99.89428711 119.42797852 C96.0035289 122.68926957 92.39649759 126.22910311 88.79663086 129.80688477 C85.37455127 132.29926643 83.32785187 132.88755581 79.09350586 132.77563477 C74.58499593 129.81098183 71.68351375 126.24255264 68.46850586 121.90063477 C67.60144729 120.74461215 66.73289433 119.58970924 65.86303711 118.43579102 C65.4126709 117.83653809 64.96230469 117.23728516 64.49829102 116.61987305 C62.10725895 113.48086431 59.63058298 110.41141276 57.15600586 107.33813477 C48.86939601 97.01943297 40.72212343 86.59407285 32.59350586 76.15063477 C31.69365967 74.99470825 31.69365967 74.99470825 30.77563477 73.81542969 C30.21021973 73.08815674 29.64480469 72.36088379 29.06225586 71.61157227 C28.56145508 70.96752441 28.0606543 70.32347656 27.54467773 69.65991211 C26.04376047 67.71104276 24.56780904 65.74468192 23.09350586 63.77563477 C23.09208084 64.56632858 23.09065582 65.3570224 23.08918762 66.17167664 C23.0713413 73.63153765 23.02968071 81.0907089 22.96141529 88.55026531 C22.92715675 92.38515191 22.90203721 96.21964064 22.89794922 100.0546875 C22.89366361 103.7573842 22.86518131 107.45918359 22.82007408 111.16160011 C22.80710709 112.57249534 22.80278865 113.98349799 22.80735207 115.39444542 C22.81226249 117.37404325 22.78328291 119.35363661 22.75292969 121.33300781 C22.74626785 122.45885788 22.73960602 123.58470795 22.73274231 124.74467468 C21.88970499 128.7419631 20.24176079 130.25319588 17.09350586 132.77563477 C13.74365234 133.42260742 13.74365234 133.42260742 9.96459961 133.43969727 C8.95732567 133.44687271 8.95732567 133.44687271 7.92970276 133.45419312 C6.51691328 133.45758093 5.10404421 133.44845643 3.69140625 133.42749023 C1.53264533 133.40065515 -0.6209387 133.42728562 -2.77954102 133.45922852 C-4.15650557 133.45592503 -5.53346691 133.44952002 -6.91040039 133.43969727 C-8.15635986 133.43405762 -9.40231934 133.42841797 -10.68603516 133.42260742 C-13.90649414 132.77563477 -13.90649414 132.77563477 -16.07542419 130.97912598 C-18.87824239 126.07554299 -18.46364068 121.42817817 -18.42407227 115.87280273 C-18.43108154 114.66744873 -18.43809082 113.46209473 -18.4453125 112.22021484 C-18.45988438 108.92253974 -18.45649464 105.62587068 -18.44379616 102.32825232 C-18.43365497 98.87565116 -18.4430645 95.42309238 -18.44934082 91.9704895 C-18.45661206 86.17515356 -18.44704141 80.38002173 -18.42797852 74.5847168 C-18.40618998 67.8833709 -18.41327718 61.18251142 -18.43528414 54.48117721 C-18.45342875 48.72562076 -18.45600177 42.97021082 -18.44552946 37.21463501 C-18.4392919 33.77777321 -18.43846623 30.34114019 -18.45167542 26.90429306 C-18.4653628 23.07589503 -18.44639959 19.24804348 -18.42407227 15.41967773 C-18.43216919 14.27882721 -18.44026611 13.13797668 -18.4486084 11.96255493 C-18.4373291 10.92230164 -18.4260498 9.88204834 -18.41442871 8.81027222 C-18.41292061 7.90511305 -18.41141251 6.99995388 -18.4098587 6.06736565 C-17.90649414 3.77563477 -17.90649414 3.77563477 -16.08353424 1.99217415 C-11.34944044 -0.65325785 -5.32092254 0.05565939 0 0 Z " fill="#FCFCFC" transform="translate(186.906494140625,101.224365234375)"/>
<path d="M0 0 C20 0 20 0 24.55859375 3.5234375 C26.07421875 5.83984375 26.07421875 5.83984375 27.4375 8.375 C28.54996582 10.13332868 29.66326686 11.89112916 30.77734375 13.6484375 C31.31085449 14.54530273 31.84436523 15.44216797 32.39404297 16.36621094 C34.86826261 20.42396125 37.67753005 24.1755702 40.5 28 C42.645 30.97 44.79 33.94 47 37 C51.62 43.27 56.24 49.54 61 56 C61.33 37.52 61.66 19.04 62 0 C68.27 0 74.54 0 81 0 C81 29.37 81 58.74 81 89 C62 89 62 89 57.79296875 85.73046875 C56.42016602 83.56665039 56.42016602 83.56665039 55.1875 81.1875 C54.16170417 79.52167913 53.13295814 77.85767206 52.1015625 76.1953125 C51.59657227 75.33325195 51.09158203 74.47119141 50.57128906 73.58300781 C48.00974941 69.37214866 45.03190242 65.49103648 42.0625 61.5625 C41.03070446 60.16933522 40.00082706 58.77474826 38.97265625 57.37890625 C37.66167969 55.60386719 36.35070312 53.82882812 35 52 C30.38 45.73 25.76 39.46 21 33 C20.67 51.81 20.34 70.62 20 90 C13.4 90 6.8 90 0 90 C0 60.3 0 30.6 0 0 Z " fill="#F9F9F9" transform="translate(45,360)"/>
<path d="M0 0 C7.35364908 4.245542 12.03346548 8.77640619 16.171875 16.25390625 C16.51347656 16.8571875 16.85507813 17.46046875 17.20703125 18.08203125 C20.49663715 25.12025783 19.171875 30.9632324 19.171875 39.25390625 C2.341875 39.25390625 -14.488125 39.25390625 -31.828125 39.25390625 C-28.711134 46.53605404 -28.711134 46.53605404 -23.08203125 50.62890625 C-16.82497367 52.36396554 -9.45208325 52.59689406 -3.640625 49.44140625 C-0.68318727 47.37907974 -0.68318727 47.37907974 1.171875 44.25390625 C6.1442172 45.74560891 10.59033239 47.85848042 15.171875 50.25390625 C15.05366282 54.1549081 13.65810163 56.10587122 11.046875 58.81640625 C2.3574383 66.97383662 -7.16544639 68.85002749 -18.87109375 68.57421875 C-24.15446902 68.14654178 -28.21759078 66.80253169 -32.828125 64.25390625 C-34.4059375 63.38765625 -34.4059375 63.38765625 -36.015625 62.50390625 C-43.59613774 56.43949606 -48.97625051 48.9113452 -50.828125 39.25390625 C-51.69737782 27.14136699 -50.63039439 18.39830294 -42.578125 8.94140625 C-31.51145774 -2.63407329 -14.98881449 -7.21776805 0 0 Z " fill="#FAFAFA" transform="translate(190.828125,382.74609375)"/>
<path d="M0 0 C6.8878819 -0.98860022 14.23181163 -1.99873882 21 0 C25.54063044 3.58488984 27.91195408 8.93892016 30.07470703 14.19067383 C31.10557165 16.20643576 32.33220225 17.48586912 34 19 C34.28383545 18.42443359 34.5676709 17.84886719 34.86010742 17.25585938 C43.09067327 1.31428113 43.09067327 1.31428113 49.67675781 -0.89990234 C55.82902654 -1.67759445 61.91342866 -1.06607795 68 0 C66.68689228 2.75844074 65.22941497 5.23329338 63.4609375 7.72265625 C62.96609863 8.42100586 62.47125977 9.11935547 61.96142578 9.83886719 C61.43790527 10.57266602 60.91438477 11.30646484 60.375 12.0625 C59.84245605 12.81821289 59.30991211 13.57392578 58.76123047 14.35253906 C56.35814732 17.75117489 53.93943609 21.11977123 51.359375 24.38671875 C50.62203125 25.33160156 49.8846875 26.27648437 49.125 27.25 C48.46757812 28.05953125 47.81015625 28.8690625 47.1328125 29.703125 C45.75104227 31.92815215 45.75104227 31.92815215 46.421875 34.2890625 C48.67497729 38.15949069 51.35667882 41.61101623 54.125 45.125 C55.2990339 46.63865874 56.47221082 48.15298255 57.64453125 49.66796875 C58.2163916 50.40450684 58.78825195 51.14104492 59.37744141 51.89990234 C61.55735623 54.72139307 63.69571633 57.56825104 65.8125 60.4375 C66.75029297 61.70400391 66.75029297 61.70400391 67.70703125 62.99609375 C69 65 69 65 69 67 C62.07870768 68.28795878 54.77067333 69.35438363 48 67 C41.69466771 61.77480194 37.72397473 54.18242882 34 47 C31.50381754 49.40349832 29.34852311 51.73352584 27.45703125 54.63671875 C27.02326172 55.29607422 26.58949219 55.95542969 26.14257812 56.63476562 C25.70365234 57.31216797 25.26472656 57.98957031 24.8125 58.6875 C20.08952703 65.91047297 20.08952703 65.91047297 19 67 C17.43827255 67.08685603 15.87270656 67.10702219 14.30859375 67.09765625 C13.36435547 67.09443359 12.42011719 67.09121094 11.44726562 67.08789062 C10.45404297 67.07951172 9.46082031 67.07113281 8.4375 67.0625 C7.44041016 67.05798828 6.44332031 67.05347656 5.41601562 67.04882812 C2.94395151 67.03700007 0.47200482 67.02051849 -2 67 C1.06713249 61.36694935 4.58737105 56.23339897 8.375 51.0625 C8.92671875 50.30259766 9.4784375 49.54269531 10.046875 48.75976562 C10.59601563 48.00501953 11.14515625 47.25027344 11.7109375 46.47265625 C12.51869629 45.35528076 12.51869629 45.35528076 13.34277344 44.21533203 C14.46078398 42.72080821 15.6221682 41.25790179 16.82128906 39.82763672 C20.12882281 36.15062989 20.12882281 36.15062989 20.765625 31.546875 C20.18296875 30.70640625 19.6003125 29.8659375 19 29 C18.56751953 28.36513672 18.13503906 27.73027344 17.68945312 27.07617188 C16.08586732 24.76676066 14.42608457 22.5072772 12.75 20.25 C0 2.95689655 0 2.95689655 0 0 Z " fill="#FBFBFB" transform="translate(216,382)"/>
<path d="M0 0 C1.36125 0.86625 1.36125 0.86625 2.75 1.75 C2.21719784 5.97489602 0.87321801 8.29080716 -1.8125 11.5625 C-2.77349609 12.74779297 -2.77349609 12.74779297 -3.75390625 13.95703125 C-4.24761719 14.54871094 -4.74132812 15.14039063 -5.25 15.75 C-6.00023437 15.316875 -6.75046875 14.88375 -7.5234375 14.4375 C-13.97154687 10.92920876 -19.8012499 8.00925949 -27.25 9.75 C-29.49471892 11.1980249 -29.49471892 11.1980249 -31.25 12.75 C-31.38440778 15.17919865 -31.38440778 15.17919865 -30.25 17.75 C-26.43215286 19.65892357 -22.72800589 20.62845577 -18.59375 21.6796875 C-17.94164551 21.84654053 -17.28954102 22.01339355 -16.61767578 22.18530273 C-14.69451251 22.66998135 -12.76528062 23.13038162 -10.8359375 23.58984375 C-4.22952553 25.72721233 -0.28656735 29.32946671 3.75 34.75 C5.96739182 41.40217547 4.88553999 47.12592771 2.140625 53.41796875 C-1.63722221 59.75329118 -8.36040361 62.82748334 -15.25 64.75 C-18.20210854 65.16393769 -21.08452496 65.22790759 -24.0625 65.1875 C-24.84931152 65.17992676 -25.63612305 65.17235352 -26.44677734 65.16455078 C-36.79655352 64.87333712 -44.42995754 61.47209954 -52.25 54.75 C-50.65956621 49.66061189 -47.5053049 45.87543357 -44.25 41.75 C-42.14301556 42.77476061 -40.1057614 43.8362296 -38.09375 45.0390625 C-31.52237982 48.7847435 -25.77209797 49.79779957 -18.25 48.75 C-15.97447046 47.81229427 -15.97447046 47.81229427 -14.25 46.75 C-13.83219121 44.37694422 -13.83219121 44.37694422 -14.25 41.75 C-19.12644498 37.91991771 -25.30472614 37.08951766 -31.21289062 35.73242188 C-38.62905747 33.92088389 -43.77256797 31.14633147 -48.25 24.75 C-50.91851644 20.18088551 -50.8719711 15.92013479 -50.25 10.75 C-48.20393109 4.04214908 -44.14488838 -0.05822702 -38.1328125 -3.44140625 C-25.4976035 -9.38616852 -11.7894974 -6.61534924 0 0 Z " fill="#FAFAFA" transform="translate(464.25,386.25)"/>
<path d="M0 0 C6.27 0 12.54 0 19 0 C19 6.27 19 12.54 19 19 C24.28 19 29.56 19 35 19 C35 23.95 35 28.9 35 34 C29.72 34 24.44 34 19 34 C19.05108114 38.62795102 19.11403825 43.25255308 19.20751953 47.87939453 C19.23570954 49.45252644 19.25693398 51.02579947 19.27099609 52.59912109 C19.29245442 54.86368956 19.33911348 57.12656504 19.390625 59.390625 C19.39185364 60.09181458 19.39308228 60.79300415 19.39434814 61.51544189 C19.49518942 64.89264602 19.79462633 66.72743283 21.85058594 69.45605469 C24.73453518 71.52762386 26.51609586 71.36290668 30 71 C31.33717339 70.68242132 32.67151582 70.35216283 34 70 C34.53469802 71.72492978 35.05219175 73.455198 35.5625 75.1875 C35.85253906 76.15042969 36.14257812 77.11335938 36.44140625 78.10546875 C37.02461026 81.12752588 36.81178385 83.05929955 36 86 C28.14783503 88.41605076 19.29913628 89.88500512 11.5625 86.375 C5.63861401 82.87228733 2.0019064 77.51992086 0 71 C-0.37203626 68.06293839 -0.35217711 65.17928109 -0.29296875 62.22265625 C-0.28872391 61.41130722 -0.28447906 60.59995819 -0.28010559 59.76402283 C-0.26343867 57.19649744 -0.22581048 54.62978436 -0.1875 52.0625 C-0.1724376 50.31186037 -0.15875193 48.56120832 -0.14648438 46.81054688 C-0.11357468 42.54005608 -0.06187726 38.27016531 0 34 C-3.63 34 -7.26 34 -11 34 C-11 29.05 -11 24.1 -11 19 C-7.37 19 -3.74 19 0 19 C0 12.73 0 6.46 0 0 Z " fill="#F9FAFA" transform="translate(299,363)"/>
<path d="M0 0 C5.94 0 11.88 0 18 0 C18.11346904 9.3107459 18.20498336 18.62102418 18.25906086 27.9323082 C18.28503013 32.25705639 18.32019242 36.58130243 18.37719727 40.90576172 C18.43197465 45.08795272 18.46151552 49.26966421 18.47438622 53.45218658 C18.48354491 55.03884671 18.50142738 56.62548394 18.52865028 58.21193695 C18.69724115 68.45467993 18.21651768 78.24928946 11.66304016 86.73016357 C4.97342013 93.03771567 -3.70118819 93.32359461 -12.375 93.203125 C-15 93 -15 93 -16 92 C-16.07319621 89.30345146 -16.09242537 86.63308542 -16.0625 83.9375 C-16.05798828 83.17888672 -16.05347656 82.42027344 -16.04882812 81.63867188 C-16.0370068 79.75908129 -16.01907078 77.87953101 -16 76 C-14.10894531 76.02126953 -14.10894531 76.02126953 -12.1796875 76.04296875 C-8.66041549 76.08255156 -6.0726795 75.89783146 -3 74 C-0.934366 70.00810438 -0.72999423 66.55114078 -0.68115234 62.09838867 C-0.67110672 61.42466217 -0.6610611 60.75093567 -0.65071106 60.05679321 C-0.61997566 57.8438599 -0.60287121 55.63104704 -0.5859375 53.41796875 C-0.56721805 51.87810741 -0.54764405 50.33825624 -0.5272522 48.79841614 C-0.47600694 44.75597135 -0.43634069 40.71349334 -0.39910889 36.67089844 C-0.35902141 32.54158357 -0.30795075 28.41240602 -0.2578125 24.28320312 C-0.16114325 16.18888913 -0.07772557 8.09451809 0 0 Z " fill="#FBFBFB" transform="translate(382,382)"/>
<path d="M0 0 C3.62342508 1.6470114 6.16816086 3.4327343 8 7 C8.83931263 13.5046729 8.83931263 13.5046729 6.98046875 16.81640625 C3.86971059 20.71660153 1.58831411 21.82019086 -3.3125 22.375 C-8.20301701 21.87765929 -9.57084492 20.42915508 -13 17 C-14.61429923 13.77140153 -14.59570657 10.49006347 -14 7 C-10.47547774 0.85838845 -6.87571247 -0.46615 0 0 Z " fill="#F7F8F8" transform="translate(358,429)"/>
<path d="M0 0 C3.51559691 1.30973218 5.50690988 2.39185552 7.875 5.3125 C9.23833511 8.56935609 9.50047119 10.49670169 9 14 C7.2447057 17.3805668 5.94088808 19.45527532 2.625 21.375 C-0.53135108 22.12651216 -2.76499216 22.46214398 -6 22 C-8.92354342 20.17108563 -11.43371681 18.13256637 -13 15 C-13.68128376 8.18716238 -13.68128376 8.18716238 -11.953125 5.17578125 C-8.16278781 0.57163637 -5.8738597 -0.45183536 0 0 Z " fill="#F8F8F8" transform="translate(393,351)"/>
<path d="M0 0 C4.08685025 1.76415703 6.52643714 4.28965571 9 8 C9 9.65 9 11.3 9 13 C-1.56 13 -12.12 13 -23 13 C-21.87355865 6.24135189 -21.87355865 6.24135189 -18.5625 3.6875 C-17.63630859 2.95080078 -17.63630859 2.95080078 -16.69140625 2.19921875 C-11.78104858 -1.28225886 -5.78206801 -0.6263907 0 0 Z " fill="#5F5F5F" transform="translate(182,396)"/>
</svg>
