<?xml version="1.0" encoding="UTF-8"?>
<svg version="1.1" xmlns="http://www.w3.org/2000/svg" width="225" height="225">
<path d="M0 0 C74.25 0 148.5 0 225 0 C225 74.25 225 148.5 225 225 C150.75 225 76.5 225 0 225 C0 150.75 0 76.5 0 0 Z " fill="#CB0000" transform="translate(0,0)"/>
<path d="M0 0 C2.87414376 0.94119493 5.22212126 2.14437396 7.82836914 3.67993164 C9.34744873 4.56660522 9.34744873 4.56660522 10.8972168 5.47119141 C11.98695801 6.11628662 13.07669922 6.76138184 14.19946289 7.42602539 C15.35441185 8.10255774 16.50985832 8.7782414 17.66577148 9.453125 C19.47628462 10.51020316 21.28652733 11.56770967 23.09533691 12.62770081 C29.03951792 16.10950689 35.02232936 19.5217641 41.01019287 22.92770386 C42.76208124 23.92609284 44.5116821 24.92836902 46.26049805 25.93212891 C52.00638707 29.22923316 57.76613668 32.49601726 63.56274414 35.70336914 C65.73343664 36.92320845 67.90401481 38.14325125 70.07446289 39.36352539 C71.06913574 39.90243408 72.06380859 40.44134277 73.08862305 40.99658203 C74.47186768 41.78150024 74.47186768 41.78150024 75.88305664 42.58227539 C76.68412842 43.02506836 77.4852002 43.46786133 78.31054688 43.92407227 C82.13575348 47.11301563 85.07721508 51.14152255 86.09479237 56.0899086 C86.26188683 58.52952854 86.27914571 60.92393393 86.23632812 63.36889648 C86.24027084 64.28368774 86.24421356 65.198479 86.24827576 66.14099121 C86.25494525 69.14022003 86.2259211 72.13789906 86.19555664 75.13696289 C86.19130364 77.22823797 86.18897764 79.31951777 86.18849182 81.41079712 C86.18234161 85.78018784 86.15970591 90.14906284 86.12402344 94.51831055 C86.07858397 100.12748129 86.0639878 105.73618793 86.06028652 111.34552574 C86.05586713 115.65712076 86.04058234 119.96861783 86.02140999 124.28017044 C86.01251579 126.34949563 86.00579163 128.4188313 86.00124931 130.48817062 C85.9922431 133.37046834 85.96988873 136.25233871 85.94335938 139.13452148 C85.9426947 139.99373199 85.94203003 140.8529425 85.94134521 141.7381897 C85.86614577 147.63434251 85.86614577 147.63434251 83.63696289 149.86352539 C76.42278595 149.95114697 70.95630728 145.91253006 64.94946289 142.30102539 C63.21580533 141.27892162 61.48212824 140.25684971 59.74746704 139.2364502 C58.54281378 138.52704715 57.33902781 137.81616944 56.13607788 137.10388184 C50.18117012 133.5790037 44.1694563 130.15736418 38.15148926 126.7416687 C34.09001986 124.43270017 30.03887028 122.10565603 25.98608398 119.78149414 C23.77477999 118.51512848 21.56159608 117.25203917 19.34643555 115.99243164 C16.29075884 114.25247797 13.24415945 112.49760369 10.19946289 110.73852539 C9.30001953 110.23047363 8.40057617 109.72242188 7.47387695 109.19897461 C1.6145048 105.78573709 -3.12989227 102.56295991 -5.36303711 95.86352539 C-5.47009381 92.91255698 -5.52030716 89.98486027 -5.52416992 87.03344727 C-5.52913483 86.130746 -5.53409973 85.22804474 -5.53921509 84.29798889 C-5.55383072 81.30941001 -5.56063661 78.32088415 -5.56616211 75.33227539 C-5.57191266 73.25866697 -5.5776704 71.18505857 -5.58343506 69.1114502 C-5.59394238 64.76366935 -5.59978727 60.41590699 -5.60327148 56.06811523 C-5.60876529 50.48915901 -5.63281338 44.91044573 -5.66124344 39.33156586 C-5.67983608 35.04912595 -5.68507354 30.76674506 -5.68660736 26.48426819 C-5.68964046 24.4269121 -5.69769098 22.36955721 -5.71079254 20.3122406 C-5.72778765 17.43917124 -5.72598921 14.56670231 -5.71948242 11.69360352 C-5.7286972 10.8394838 -5.73791199 9.98536407 -5.74740601 9.10536194 C-5.7060793 3.30015603 -5.7060793 3.30015603 -3.98775864 1.11304474 C-2.36303711 -0.13647461 -2.36303711 -0.13647461 0 0 Z " fill="#CB0000" transform="translate(24.363037109375,65.136474609375)"/>
<path d="M0 0 C3.02836907 3.02836907 2.30318324 6.48211151 2.30639648 10.54541016 C2.31472 11.43018036 2.32304352 12.31495056 2.33161926 13.22653198 C2.35579653 16.16408645 2.36450283 19.10141894 2.37109375 22.0390625 C2.38005757 24.07970243 2.38917937 26.12034168 2.39845276 28.16098022 C2.41496864 32.44669187 2.422647 36.7323252 2.42553711 41.01806641 C2.43090902 46.49924155 2.46852878 51.97967553 2.51428127 57.46064186 C2.54409341 61.67982637 2.55126165 65.89883381 2.55226326 70.11811447 C2.55646097 72.13786572 2.56887718 74.15761773 2.58978081 76.17726517 C2.61676747 79.01146227 2.61184697 81.84396081 2.59936523 84.67822266 C2.61419952 85.5065863 2.62903381 86.33494995 2.64431763 87.18841553 C2.56840836 93.26984822 0.77298423 97.24442186 -3 102 C-5.05053711 103.86523438 -5.05053711 103.86523438 -7.08984375 105.09375 C-7.87085449 105.57199219 -8.65186523 106.05023438 -9.45654297 106.54296875 C-10.29588379 107.02378906 -11.13522461 107.50460938 -12 108 C-12.88445801 108.51175781 -13.76891602 109.02351563 -14.68017578 109.55078125 C-17.62724171 111.22637398 -20.59206239 112.86622425 -23.5625 114.5 C-32.20797931 119.29435206 -40.78954094 124.17868438 -49.3125 129.1875 C-53.20552601 131.46317216 -57.10198684 133.73288274 -61 136 C-61.9600293 136.56009766 -62.92005859 137.12019531 -63.90917969 137.69726562 C-66.65977933 139.29341994 -69.42135483 140.86847773 -72.1875 142.4375 C-73.00710205 142.91662842 -73.8267041 143.39575684 -74.67114258 143.8894043 C-80.26126023 147.02221048 -80.26126023 147.02221048 -83.98828125 146.91015625 C-86 146 -86 146 -87 144 C-87.11424695 141.13331968 -87.16786248 138.29038622 -87.17700195 135.42285156 C-87.18357315 134.53486877 -87.19014435 133.64688599 -87.19691467 132.73199463 C-87.21667143 129.78487061 -87.22831607 126.83779763 -87.23828125 123.890625 C-87.24235678 122.88495232 -87.2464323 121.87927963 -87.25063133 120.84313202 C-87.27150305 115.51944686 -87.28579953 110.19578756 -87.29516602 104.87207031 C-87.30622769 99.37289597 -87.34062181 93.87412659 -87.38033772 88.37509537 C-87.40648501 84.14743294 -87.41485623 79.91986722 -87.41844749 75.69213104 C-87.42331898 73.66515114 -87.43494892 71.63817572 -87.45348549 69.61127472 C-87.47783467 66.77209936 -87.47691946 63.93397439 -87.4699707 61.09472656 C-87.48278076 60.25917236 -87.49559082 59.42361816 -87.50878906 58.56274414 C-87.46127421 53.22908999 -86.4915863 50.26144386 -83 46 C-77.09280595 40.2713717 -69.24176845 36.55255269 -62.125 32.5625 C-60.25764134 31.50728047 -58.39139967 30.45010226 -56.52514648 29.39292908 C-55.24964012 28.67064198 -53.97375882 27.9490166 -52.69750977 27.2280426 C-46.18945642 23.55006635 -39.71979744 19.80729232 -33.25 16.0625 C-31.11609431 14.83297072 -28.98198673 13.60379174 -26.84765625 12.375 C-23.22117134 10.2862576 -19.60399385 8.18315734 -15.99609375 6.0625 C-14.56006128 5.22888159 -13.12387726 4.39552417 -11.6875 3.5625 C-11.06584961 3.19068604 -10.44419922 2.81887207 -9.80371094 2.43579102 C-6.42266353 0.49183194 -3.91722038 -0.61704887 0 0 Z " fill="#CC0202" transform="translate(204,67)"/>
<path d="M0 0 C35.64 0 71.28 0 108 0 C108 74.25 108 148.5 108 225 C71.7 225 35.4 225 -2 225 C-0.02 224.01 -0.02 224.01 2 223 C6.20337524 220.71636244 10.38147979 218.38676916 14.5625 216.0625 C15.1697995 215.72508789 15.777099 215.38767578 16.40280151 215.04003906 C26.13071449 209.63189441 35.79233858 204.11953884 45.40478516 198.50878906 C49.5347176 196.1077559 53.67804414 193.73006582 57.81958008 191.34912109 C62.23783769 188.80652405 66.65037115 186.25411894 71.06152344 183.69921875 C72.89102752 182.6412802 74.72212912 181.58609336 76.55566406 180.53515625 C78.66758179 179.32423958 80.77230615 178.10183893 82.875 176.875 C83.98617187 176.23304688 85.09734375 175.59109375 86.2421875 174.9296875 C89.72707324 172.4912547 92.09752029 169.80495941 94 166 C94.10015548 164.58192978 94.13937662 163.15931328 94.14717102 161.73773193 C94.15432632 160.84333908 94.16148163 159.94894623 94.16885376 159.02745056 C94.17154266 158.04353836 94.17423157 157.05962616 94.17700195 156.04589844 C94.18357315 155.01161209 94.19014435 153.97732574 94.19691467 152.91169739 C94.21667859 149.47758925 94.22831735 146.0435249 94.23828125 142.609375 C94.24235678 141.43821388 94.2464323 140.26705276 94.25063133 139.06040192 C94.27150554 132.86139603 94.28580127 126.66241236 94.29516602 120.46337891 C94.30623157 114.05621822 94.34062973 107.64940472 94.38033772 101.24236679 C94.40646876 96.31985829 94.41485477 91.39743291 94.41844749 86.47486115 C94.42332273 84.11295477 94.43496321 81.75105234 94.45348549 79.38921356 C94.47780078 76.08308833 94.47692537 72.77786673 94.4699707 69.47167969 C94.48278076 68.49586441 94.49559082 67.52004913 94.50878906 66.5146637 C94.46408792 60.6843581 93.82052063 57.47371279 90 53 C88.11502639 51.30065541 88.11502639 51.30065541 86 50.046875 C84.81664062 49.3034082 84.81664062 49.3034082 83.609375 48.54492188 C78.78793784 45.69031349 73.90807839 42.95243287 69 40.25 C61.85125003 36.28106631 54.71538408 32.30480762 47.6875 28.125 C40.04598996 23.58610155 32.34075976 19.16098658 24.625 14.75 C24.03012787 14.40938538 23.43525574 14.06877075 22.82235718 13.71783447 C15.26180101 9.39000924 7.66658374 5.13727473 0 1 C0 0.67 0 0.34 0 0 Z " fill="#FDFCFC" transform="translate(117,0)"/>
<path d="M0 0 C35.64 0 71.28 0 108 0 C104.9830571 2.26270718 102.25317304 4.06098104 98.984375 5.86328125 C97.99332764 6.41290527 97.00228027 6.9625293 95.98120117 7.52880859 C94.91490479 8.11742676 93.8486084 8.70604492 92.75 9.3125 C83.18880899 14.62696035 73.70140379 20.05011763 64.26831055 25.58911133 C58.72760189 28.83780185 53.17038502 32.05384055 47.5859375 35.2265625 C46.95885391 35.58313934 46.33177032 35.93971619 45.6856842 36.30709839 C42.63499174 38.0410582 39.58218615 39.77112989 36.52612305 41.49560547 C31.61538772 44.28311651 26.71571763 47.08968279 21.93359375 50.09375 C21.26255615 50.51333984 20.59151855 50.93292969 19.90014648 51.36523438 C16.61950876 54.18768718 14.34380701 56.93570741 13.62703609 61.23935699 C13.47987612 63.96941808 13.45958929 66.67421384 13.48242188 69.40820312 C13.4754126 70.44307358 13.46840332 71.47794403 13.46118164 72.54417419 C13.44361103 75.95680768 13.45522171 79.36860843 13.46875 82.78125 C13.46605483 85.15726887 13.46217221 87.53328666 13.45715332 89.90930176 C13.45125951 94.88576777 13.45981785 99.86194634 13.47851562 104.83837891 C13.50130463 111.21411266 13.48818099 117.58917285 13.46422577 123.9648819 C13.44976492 128.87027045 13.45437521 133.77549957 13.46473694 138.68089294 C13.46740341 141.03161194 13.46413731 143.38234545 13.45481873 145.73304749 C13.4446489 149.01968677 13.4601617 152.30523849 13.48242188 155.59179688 C13.47432495 156.56132797 13.46622803 157.53085907 13.45788574 158.5297699 C13.53065384 164.33539698 14.20289182 167.54121001 18 172 C19.89993179 173.7077677 19.89993179 173.7077677 22.02734375 174.96875 C22.81737793 175.46503906 23.60741211 175.96132812 24.42138672 176.47265625 C29.08777934 179.23661688 33.81062964 181.88619101 38.5625 184.5 C48.01846715 189.74734673 57.39642055 195.10783478 66.72192383 200.58325195 C72.32489453 203.86819679 77.94460261 207.12044715 83.58984375 210.33203125 C84.54821892 210.87754639 84.54821892 210.87754639 85.5259552 211.43408203 C88.65288961 213.21304484 91.78182261 214.98837775 94.91333008 216.75927734 C96.0402124 217.39945801 97.16709473 218.03963867 98.328125 218.69921875 C99.82714355 219.54746216 99.82714355 219.54746216 101.35644531 220.4128418 C104 222 104 222 108 225 C72.36 225 36.72 225 0 225 C0 150.75 0 76.5 0 0 Z " fill="#FDFCFC" transform="translate(0,0)"/>
<path d="M0 0 C5.25375967 2.21351296 10.09656047 5.11357815 15 8 C16.77301056 9.02938156 18.54647457 10.05798233 20.3203125 11.0859375 C24.35647796 13.43092052 28.38476688 15.78891806 32.41015625 18.15234375 C38.69333153 21.83304276 45.01375136 25.44627459 51.34265137 29.04742432 C55.43854785 31.38010202 59.52830317 33.72353179 63.61865234 36.06591797 C65.84386534 37.33870767 68.07071311 38.60864423 70.29931641 39.87548828 C73.35212686 41.61387476 76.3957872 43.36728681 79.4375 45.125 C80.33678223 45.63297119 81.23606445 46.14094238 82.16259766 46.66430664 C87.75174272 49.92004047 92.03570743 53.07141485 95 59 C95.10015548 60.41807022 95.13937662 61.84068672 95.14717102 63.26226807 C95.15790398 64.60385735 95.15790398 64.60385735 95.16885376 65.97254944 C95.17154266 66.95646164 95.17423157 67.94037384 95.17700195 68.95410156 C95.18357315 69.98838791 95.19014435 71.02267426 95.19691467 72.08830261 C95.21667859 75.52241075 95.22831735 78.9564751 95.23828125 82.390625 C95.24235678 83.56178612 95.2464323 84.73294724 95.25063133 85.93959808 C95.27150554 92.13860397 95.28580127 98.33758764 95.29516602 104.53662109 C95.30623157 110.94378178 95.34062973 117.35059528 95.38033772 123.75763321 C95.40646876 128.68014171 95.41485477 133.60256709 95.41844749 138.52513885 C95.42332273 140.88704523 95.43496321 143.24894766 95.45348549 145.61078644 C95.47780078 148.91691167 95.47692537 152.22213327 95.4699707 155.52832031 C95.48918579 156.99204323 95.48918579 156.99204323 95.50878906 158.4853363 C95.46515487 164.17648177 94.84205208 167.5045458 91 172 C87.70000679 174.98429779 84.16736458 177.18096778 80.30078125 179.36328125 C79.18767578 179.99492187 78.07457031 180.6265625 76.92773438 181.27734375 C76.33951904 181.60847168 75.75130371 181.93959961 75.14526367 182.28076172 C72.63143941 183.6958971 70.12305265 185.12055205 67.61422729 186.54452515 C66.31659948 187.28088741 65.01868436 188.0167436 63.7204895 188.75210571 C57.45996237 192.29958383 51.22848186 195.89659491 45 199.5 C42.88035746 200.72291476 40.76056412 201.94556818 38.640625 203.16796875 C35.1720385 205.16831241 31.70455677 207.17050546 28.24023438 209.17822266 C25.03448483 211.03587271 21.82559501 212.88799555 18.61474609 214.73681641 C17.38542231 215.445955 16.15720315 216.15701247 14.93017578 216.87011719 C13.22201536 217.86249949 11.50952041 218.84740932 9.796875 219.83203125 C8.33266113 220.67858276 8.33266113 220.67858276 6.83886719 221.54223633 C1.55577328 224.25511504 -3.05124269 225.70715155 -9 225 C-12.48282549 223.58307647 -15.6846235 221.7526245 -18.9375 219.875 C-19.89769043 219.33584961 -20.85788086 218.79669922 -21.84716797 218.24121094 C-24.90936565 216.51305469 -27.95653149 214.76090902 -31 213 C-32.44318604 212.1661377 -32.44318604 212.1661377 -33.91552734 211.31542969 C-38.83010231 208.46826204 -43.7321317 205.60030879 -48.62890625 202.72265625 C-54.96810012 199.00513559 -61.34859018 195.36269328 -67.73550415 191.72808838 C-71.81086605 189.40691495 -75.88035792 187.07547043 -79.95019531 184.74462891 C-81.8359225 183.66590601 -83.72301914 182.58956839 -85.61230469 181.51708984 C-87.72742395 180.31424389 -89.83384257 179.09774244 -91.9375 177.875 C-93.01902344 177.25367188 -94.10054687 176.63234375 -95.21484375 175.9921875 C-98.9788781 173.29982071 -101.90568354 170.18863291 -104 166 C-104.10015548 164.58192978 -104.13937662 163.15931328 -104.14717102 161.73773193 C-104.15432632 160.84333908 -104.16148163 159.94894623 -104.16885376 159.02745056 C-104.17154266 158.04353836 -104.17423157 157.05962616 -104.17700195 156.04589844 C-104.18357315 155.01161209 -104.19014435 153.97732574 -104.19691467 152.91169739 C-104.21667859 149.47758925 -104.22831735 146.0435249 -104.23828125 142.609375 C-104.24235678 141.43821388 -104.2464323 140.26705276 -104.25063133 139.06040192 C-104.27150554 132.86139603 -104.28580127 126.66241236 -104.29516602 120.46337891 C-104.30623157 114.05621822 -104.34062973 107.64940472 -104.38033772 101.24236679 C-104.40646876 96.31985829 -104.41485477 91.39743291 -104.41844749 86.47486115 C-104.42332273 84.11295477 -104.43496321 81.75105234 -104.45348549 79.38921356 C-104.47780078 76.08308833 -104.47692537 72.77786673 -104.4699707 69.47167969 C-104.48278076 68.49586441 -104.49559082 67.52004913 -104.50878906 66.5146637 C-104.46515487 60.82351823 -103.84205208 57.4954542 -100 53 C-96.70000679 50.01570221 -93.16736458 47.81903222 -89.30078125 45.63671875 C-88.18767578 45.00507812 -87.07457031 44.3734375 -85.92773438 43.72265625 C-85.33951904 43.39152832 -84.75130371 43.06040039 -84.14526367 42.71923828 C-81.63143941 41.3041029 -79.12305265 39.87944795 -76.61422729 38.45547485 C-75.31659948 37.71911259 -74.01868436 36.9832564 -72.7204895 36.24789429 C-66.45996587 32.70041815 -60.22823841 29.10382113 -54 25.5 C-45.17840652 20.40335216 -36.34793455 15.32249478 -27.50488281 10.26318359 C-26.26280647 9.55245783 -25.02094048 8.84136431 -23.77929688 8.12988281 C-22.05402308 7.14146426 -20.3278122 6.15468192 -18.6015625 5.16796875 C-17.61494629 4.60360107 -16.62833008 4.0392334 -15.61181641 3.45776367 C-10.25813865 0.46965282 -6.25045479 -1.23596564 0 0 Z M-19.1875 12.625 C-20.03352783 13.11572998 -20.87955566 13.60645996 -21.7512207 14.11206055 C-24.51383226 15.72021533 -27.2562362 17.35993424 -30 19 C-31.91509295 20.12118199 -33.83178625 21.2396345 -35.75 22.35546875 C-38.73310572 24.09092333 -41.71474493 25.82850584 -44.69042969 27.57666016 C-53.23164361 32.58986223 -61.86212686 37.43347896 -70.53979492 42.20629883 C-80.89031941 47.72905503 -80.89031941 47.72905503 -90 55 C-90.05081138 56.97581668 -90.05081138 56.97581668 -89 59 C-84.47058382 63.17815533 -79.04341457 65.91184834 -73.6875 68.875 C-65.40876312 73.50181794 -57.17954764 78.19999779 -49 83 C-40.82497056 87.78883525 -32.62083494 92.52153841 -24.375 97.1875 C-23.42109375 97.72826172 -22.4671875 98.26902344 -21.484375 98.82617188 C-11.43022969 105.09984036 -11.43022969 105.09984036 0 106 C6.49660767 103.58673571 12.41728484 100.09114204 18.4375 96.6875 C19.53570068 96.06939453 20.63390137 95.45128906 21.76538086 94.81445312 C31.21391893 89.47976191 40.59894158 84.03996078 49.94921875 78.53515625 C54.19762802 76.03835153 58.47351674 73.59753308 62.76953125 71.18359375 C64.42746704 70.24290039 64.42746704 70.24290039 66.11889648 69.28320312 C68.24340812 68.0789362 70.374208 66.88567651 72.51196289 65.70507812 C73.46449951 65.16173828 74.41703613 64.61839844 75.3984375 64.05859375 C76.24067871 63.58736084 77.08291992 63.11612793 77.95068359 62.63061523 C80.41853804 60.66697456 81.08163532 58.97634504 82 56 C79.09092634 52.84878975 76.20075071 50.77004482 72.46875 48.671875 C71.36217041 48.04506836 70.25559082 47.41826172 69.11547852 46.77246094 C67.91035184 46.09824861 66.70519143 45.42409658 65.5 44.75 C64.24692422 44.04268307 62.99424512 43.33466299 61.74194336 42.62597656 C59.13531265 41.15157645 56.52699428 39.68022835 53.91748047 38.2109375 C48.96182888 35.41776042 44.02395383 32.59377979 39.08764648 29.76660156 C36.74494657 28.42495548 34.39934103 27.08862726 32.05102539 25.75683594 C26.64212459 22.68353594 21.26741258 19.57555434 15.9609375 16.328125 C15.02306396 15.76383789 14.08519043 15.19955078 13.11889648 14.61816406 C11.40311443 13.58272716 9.6981781 12.52896183 8.00805664 11.45214844 C-1.63637815 5.68635463 -9.89167138 6.93691469 -19.1875 12.625 Z M-96.66327 66.25973129 C-98.99763949 69.29881187 -98.42361007 73.08319358 -98.40405273 76.76660156 C-98.41091599 77.66287766 -98.41777924 78.55915375 -98.42485046 79.48258972 C-98.44318378 82.45209505 -98.43927034 85.42107509 -98.43359375 88.390625 C-98.43815372 90.45465263 -98.44345874 92.51867874 -98.44947815 94.58270264 C-98.45842306 98.91375891 -98.45597194 103.24463096 -98.44604492 107.57568359 C-98.43457708 113.1185081 -98.45472637 118.66069347 -98.48396206 124.20343399 C-98.50233906 128.46891303 -98.50202818 132.73423953 -98.49632454 136.99974823 C-98.49617138 139.04262943 -98.50221106 141.08552102 -98.51461601 143.12836456 C-98.52954527 145.99125253 -98.51883308 148.85296823 -98.50170898 151.71582031 C-98.51137695 152.55555893 -98.52104492 153.39529755 -98.53100586 154.26048279 C-98.44825074 160.88991816 -96.73526933 165.31040307 -91.89453125 170.0703125 C-87.62488608 172.91674262 -83.17579944 175.3917673 -78.6875 177.875 C-70.51541813 182.44340952 -62.38881303 187.07684987 -54.3125 191.8125 C-52.33353869 192.96779976 -50.35436727 194.12273966 -48.375 195.27734375 C-45.01276511 197.23882477 -41.65244166 199.20340904 -38.296875 201.17626953 C-35.10012772 203.05483439 -31.89686576 204.92186923 -28.68954468 206.78231812 C-27.44753961 207.50532511 -26.20776674 208.23218163 -24.97036743 208.96304321 C-23.24264695 209.98280623 -21.5062417 210.98781133 -19.76953125 211.9921875 C-18.77542236 212.57339355 -17.78131348 213.15459961 -16.75708008 213.75341797 C-13.85746374 215.06444613 -12.13743251 215.43365914 -9 215 C-5.94201596 211.94201596 -6.69677848 208.37521516 -6.69360352 204.27099609 C-6.68111824 202.91458008 -6.68111824 202.91458008 -6.66838074 201.53076172 C-6.64420225 198.52827698 -6.63549707 195.52600941 -6.62890625 192.5234375 C-6.61994262 190.43795709 -6.61082082 188.35247735 -6.60154724 186.26699829 C-6.5850311 181.88713009 -6.57735293 177.50733854 -6.57446289 173.12744141 C-6.56909055 167.52520484 -6.53146901 161.92369328 -6.48571873 156.321661 C-6.45591042 152.00983077 -6.44873843 147.69817384 -6.44773674 143.38624954 C-6.44353838 141.32184164 -6.43111956 139.25743304 -6.41021919 137.19312668 C-6.38324028 134.29667496 -6.38815089 131.40188601 -6.40063477 128.50537109 C-6.38580048 127.65830597 -6.37096619 126.81124084 -6.35568237 125.93850708 C-6.43031618 119.83062138 -8.13010538 115.74029814 -12 111 C-14.43411699 108.9067397 -14.43411699 108.9067397 -17.19140625 107.5 C-18.20396484 106.93152344 -19.21652344 106.36304688 -20.25976562 105.77734375 C-21.34966797 105.19082031 -22.43957031 104.60429688 -23.5625 104 C-25.3144477 103.0239571 -27.0663797 102.04788498 -28.81747437 101.0703125 C-30.64721736 100.05231239 -32.48155613 99.04302817 -34.31689453 98.03515625 C-39.66867303 95.08863378 -44.96169789 92.03987467 -50.25952148 88.99780273 C-51.99751063 88.00142714 -53.73761339 87.00885397 -55.47851562 86.01757812 C-61.48539814 82.5961346 -67.4746899 79.14731682 -73.44140625 75.65625 C-74.64902173 74.95170839 -75.85670297 74.24727947 -77.06445312 73.54296875 C-79.35251755 72.20865993 -81.63528151 70.86645285 -83.91601562 69.51953125 C-84.93501953 68.92527344 -85.95402344 68.33101563 -87.00390625 67.71875 C-87.89924072 67.19216797 -88.7945752 66.66558594 -89.71704102 66.12304688 C-92.50417417 64.75198362 -94.09456345 64.31423836 -96.66327 66.25973129 Z M76.203125 69.9296875 C75.08881104 70.55480225 73.97449707 71.17991699 72.82641602 71.82397461 C71.63408785 72.50731921 70.44195343 73.19100196 69.25 73.875 C68.01597886 74.57311692 66.78151895 75.27045879 65.54663086 75.96704102 C58.54307979 79.9283851 51.56947292 83.94387215 44.66333008 88.07299805 C40.15636958 90.7615439 35.60190159 93.35734335 31.0234375 95.921875 C29.12542841 96.98962332 27.22773216 98.05792623 25.33004761 99.12625122 C24.08709709 99.8232375 22.84229289 100.51693031 21.5954895 101.20700073 C8.59508672 107.82259662 8.59508672 107.82259662 0 119 C-0.19157347 121.98222251 -0.27313992 124.87004036 -0.25878906 127.85180664 C-0.2622937 128.74490036 -0.26579834 129.63799408 -0.26940918 130.55815125 C-0.27820859 133.50889874 -0.27238412 136.45940633 -0.265625 139.41015625 C-0.26697204 141.45991563 -0.26891291 143.5096747 -0.27142334 145.55943298 C-0.27437208 149.85418745 -0.27008451 154.14885872 -0.26074219 158.44360352 C-0.24934065 163.95411065 -0.25591319 169.46442312 -0.26788712 174.97492313 C-0.27510631 179.20675632 -0.27281763 183.43854317 -0.26763153 187.67037773 C-0.26629557 189.70260071 -0.26794087 191.73482787 -0.27259064 193.76704597 C-0.27765758 196.60400705 -0.26994353 199.44065053 -0.25878906 202.27758789 C-0.26283752 203.12078583 -0.26688599 203.96398376 -0.27105713 204.83273315 C-0.24254597 208.73782034 -0.21579353 210.67630971 2 214 C6.49139023 213.45773567 9.71664634 212.33072583 13.6484375 210.11328125 C14.72375732 209.51185303 15.79907715 208.9104248 16.90698242 208.29077148 C18.62365112 207.3115271 18.62365112 207.3115271 20.375 206.3125 C21.58342164 205.63102654 22.79216698 204.9501268 24.0012207 204.26977539 C33.73337348 198.77859748 43.39951174 193.17184959 53.02734375 187.5 C57.22897715 185.02672288 61.45240161 182.59615053 65.69140625 180.1875 C66.78880127 179.55980713 67.88619629 178.93211426 69.0168457 178.28540039 C71.11894346 177.08395223 73.22534902 175.88999925 75.33666992 174.70483398 C82.06442773 170.8722616 82.06442773 170.8722616 87 165 C87.53194977 164.2117131 87.53194977 164.2117131 88.074646 163.40750122 C89.49031239 159.72435017 89.27748348 156.02383231 89.25878906 152.13232422 C89.2622937 151.23762421 89.26579834 150.34292419 89.26940918 149.42111206 C89.27820773 146.46555816 89.27238492 143.5102438 89.265625 140.5546875 C89.26697195 138.50253249 89.26891273 136.45037779 89.27142334 134.39822388 C89.27437186 130.09927327 89.27008477 125.80040579 89.26074219 121.50146484 C89.24933348 115.9818913 89.25591785 110.46251194 89.26788712 104.94294548 C89.27510078 100.70686367 89.27282031 96.4708282 89.26763153 92.23474503 C89.26629441 90.19890444 89.26794492 88.16305969 89.27259064 86.12722397 C89.27764933 83.2876641 89.26995558 80.44842276 89.25878906 77.60888672 C89.26283752 76.76209351 89.26688599 75.91530029 89.27105713 75.04284668 C89.43208867 70.54778694 89.43208867 70.54778694 87 67 C82.61194469 66.40248966 79.98119647 67.78902463 76.203125 69.9296875 Z " fill="#910505" transform="translate(117,0)"/>
<path d="M0 0 C0 24.09 0 48.18 0 73 C-14 81 -14 81 -15 81 C-15 63.18 -15 45.36 -15 27 C-19.29 29.64 -23.58 32.28 -28 35 C-28.99 35.495 -28.99 35.495 -30 36 C-29.9592334 36.65795563 -29.9184668 37.31591125 -29.87646484 37.99380493 C-27.05741302 86.23940302 -27.05741302 86.23940302 -33.32226562 94.93066406 C-38.75817047 100.03297716 -45.02637372 102.60916396 -52.24511719 104.24707031 C-55.22624082 105.06183328 -57.38957275 106.37620862 -60 108 C-60.66 108 -61.32 108 -62 108 C-62.51256485 98.8389731 -62.90189687 89.68294792 -63.13986778 80.5106554 C-63.25418099 76.24939316 -63.40863273 71.99800315 -63.65966797 67.74243164 C-65.23141576 40.38177184 -65.23141576 40.38177184 -59.98013306 33.26107788 C-54.85708454 28.80577489 -49.04041002 26.30586132 -42.70324707 24.02114868 C-39.0744129 22.65036046 -36.10269499 20.82387566 -32.83984375 18.73046875 C-31.84799072 18.13564697 -30.8561377 17.5408252 -29.83422852 16.92797852 C-28.4003479 16.06644165 -28.4003479 16.06644165 -26.9375 15.1875 C-25.89456787 14.56222412 -24.85163574 13.93694824 -23.77709961 13.29272461 C-17.19316726 9.3392826 -10.64641402 5.33440243 -4.16015625 1.22265625 C-2 0 -2 0 0 0 Z " fill="#FEFDFD" transform="translate(191,86)"/>
</svg>
