<?xml version="1.0" encoding="UTF-8"?>
<svg version="1.1" xmlns="http://www.w3.org/2000/svg" width="459" height="517">
<path d="M0 0 C151.47 0 302.94 0 459 0 C459 170.61 459 341.22 459 517 C307.53 517 156.06 517 0 517 C0 346.39 0 175.78 0 0 Z " fill="#3D4B50" transform="translate(0,0)"/>
<path d="M0 0 C9.36602027 5.3015209 13.73762231 14.35219805 18.9375 23.375 C19.6945265 24.67894429 20.45210252 25.9825697 21.21020508 27.28588867 C22.74647327 29.92871464 24.27980363 32.57320851 25.81054688 35.21923828 C28.35537898 39.61681602 30.91746758 44.00424776 33.48071289 48.39111328 C35.19085292 51.31823896 36.89855169 54.24677512 38.60546875 57.17578125 C42.06861915 63.11817575 45.5341278 69.05919266 49 75 C52.4658722 80.94080734 55.93138085 86.88182425 59.39453125 92.82421875 C71.99161637 114.43651061 84.62543013 136.02585083 97.3996582 157.53393555 C101.16145546 163.87468967 104.88671874 170.23404349 108.5625 176.625 C112.70366423 183.82481907 116.96077529 190.95000203 121.25 198.0625 C127.04640892 207.67856738 132.70367395 217.36613934 138.29052734 227.10522461 C142.91519013 235.15460177 147.62710848 243.14806177 152.375 251.125 C156.789594 258.54944808 161.19195462 265.97725341 165.4375 273.5 C165.7969873 274.13437988 166.15647461 274.76875977 166.52685547 275.42236328 C171.01778278 283.45625893 171.56880804 293.75166169 169.31640625 302.72265625 C165.90439269 310.07051947 159.96517082 313.34051604 152.71719933 316.15709496 C148.47343871 317.47355606 144.50300498 317.53516907 140.08911133 317.4699707 C139.13517266 317.47212995 138.181234 317.47428919 137.1983881 317.47651386 C133.99259824 317.4787635 130.78770412 317.45217082 127.58203125 317.42578125 C125.22576149 317.42127552 122.86948788 317.41851528 120.51321411 317.41732788 C114.67548672 317.4095459 108.83802367 317.38270081 103.00041485 317.34737372 C96.04945861 317.30606327 89.09848406 317.2854914 82.1474396 317.26541436 C69.61869786 317.22851638 57.09008995 317.17408001 44.56145322 317.1114701 C25.64806093 317.01729184 6.73472301 316.96116912 -12.17884731 316.91702366 C-30.34253407 316.87443607 -48.50616019 316.81988452 -66.6697855 316.75625515 C-68.93908751 316.74833056 -71.20838956 316.74041665 -73.47769165 316.73251343 C-74.5988919 316.72860086 -75.72009215 316.7246883 -76.87526816 316.72065717 C-84.80814312 316.6935915 -92.74101985 316.67308628 -100.67391968 316.65493774 C-110.44539604 316.63233086 -120.21676601 316.59873996 -129.9881568 316.55180001 C-135.0432254 316.52779271 -140.09819225 316.50865855 -145.1533165 316.50230026 C-149.82997768 316.49626562 -154.50637278 316.47637863 -159.18293536 316.44570482 C-160.88191467 316.43696201 -162.58092865 316.43321827 -164.27992952 316.4349972 C-175.75793318 316.4432118 -185.58532588 316.28269442 -194.3359375 307.86328125 C-199.36370002 302.2336035 -199.76203825 296.24625894 -199.61328125 288.89453125 C-198.45274533 281.52475858 -194.7453632 275.36100613 -191 269 C-190.44183594 268.03707031 -189.88367188 267.07414062 -189.30859375 266.08203125 C-188.34209455 264.45437594 -187.36123507 262.83512418 -186.36328125 261.2265625 C-184.99927403 258.99881433 -183.74321544 256.73448853 -182.5 254.4375 C-180.33400078 250.48280464 -177.87907587 246.78787679 -175.34375 243.0625 C-173.66175998 240.48084091 -172.35222777 237.76592045 -171 235 C-170.401875 234.113125 -169.80375 233.22625 -169.1875 232.3125 C-164.10437968 224.61520352 -160.05556042 216.27262546 -156 208 C-155.34 208 -154.68 208 -154 208 C-153.72671875 207.26910156 -153.4534375 206.53820312 -153.171875 205.78515625 C-152.05625597 203.13370168 -150.77973951 200.86781197 -149.25 198.4375 C-143.02128754 188.61112918 -143.02128754 188.61112918 -139.45703125 177.7109375 C-139.30621094 176.81632813 -139.15539062 175.92171875 -139 175 C-137 173.875 -137 173.875 -135 173 C-134.65932381 171.66852389 -134.32710453 170.33487509 -134 169 C-132.84375 167.18359375 -132.84375 167.18359375 -131.5 165.4375 C-129.76352292 163.17099358 -128.92509236 161.77527707 -128 159 C-127.34 159 -126.68 159 -126 159 C-125.68095703 157.81664062 -125.68095703 157.81664062 -125.35546875 156.609375 C-123.54818706 151.79690155 -120.97375513 147.63507183 -118.3125 143.25 C-117.13410203 141.2833392 -115.95707612 139.31585579 -114.78125 137.34765625 C-114.16378906 136.31527832 -113.54632813 135.28290039 -112.91015625 134.21923828 C-109.65840563 128.73897452 -106.48719536 123.21264051 -103.3125 117.6875 C-96.62889401 106.07383626 -89.86347369 94.51266618 -83.02734375 82.98828125 C-81.95548182 81.17983408 -80.88387407 79.37123624 -79.8125 77.5625 C-78.99712769 76.1861438 -78.99712769 76.1861438 -78.1652832 74.78198242 C-73.90641826 67.5750056 -69.72858072 60.32339893 -65.5625 53.0625 C-58.58276921 40.91410295 -51.39479916 28.90034939 -44 17 C-43.3920459 16.01620361 -42.7840918 15.03240723 -42.15771484 14.01879883 C-41.54621582 13.04064209 -40.9347168 12.06248535 -40.3046875 11.0546875 C-39.47686768 9.72606689 -39.47686768 9.72606689 -38.63232422 8.37060547 C-29.35369833 -5.10463494 -13.99435681 -7.14500612 0 0 Z " fill="#8A297A" transform="translate(241,10)"/>
<path d="M0 0 C10.62405391 1.32800674 17.64575318 4.13416858 25 12 C27.6220796 15.76369932 29.80767537 19.72431379 32 23.75 C32.97558469 25.49127086 33.95122218 27.23251418 34.9296875 28.97216797 C35.60465619 30.17331139 36.2778184 31.37547163 36.94921875 32.57861328 C40.51281894 38.95711496 44.25264591 45.22805008 48 51.5 C54.54918836 62.50559096 60.97391405 73.57851247 67.359375 84.6796875 C73.19076358 94.81490112 79.0951804 104.90745269 85 115 C85.66257812 116.13308594 86.32515625 117.26617187 87.0078125 118.43359375 C95.42583022 132.8278533 103.88451835 147.19691665 112.3996582 161.53393555 C116.16145546 167.87468967 119.88671874 174.23404349 123.5625 180.625 C127.70366423 187.82481907 131.96077529 194.95000203 136.25 202.0625 C142.04640892 211.67856738 147.70367395 221.36613934 153.29052734 231.10522461 C157.91519013 239.15460177 162.62710848 247.14806177 167.375 255.125 C171.789594 262.54944808 176.19195462 269.97725341 180.4375 277.5 C180.7969873 278.13437988 181.15647461 278.76875977 181.52685547 279.42236328 C184.44161787 284.63663093 185.11726569 288.21803955 185.0625 294.1875 C185.05347656 295.45980469 185.04445313 296.73210937 185.03515625 298.04296875 C185.01775391 299.50669922 185.01775391 299.50669922 185 301 C180.56903915 300.40590469 177.40736085 298.74024262 173.5625 296.5 C172.65431519 295.97249146 172.65431519 295.97249146 171.7277832 295.43432617 C166.19058021 292.18517635 160.80704021 288.7110386 155.44921875 285.17578125 C152.91755263 283.5387192 150.33122601 282.05433116 147.6875 280.60546875 C142.78119852 277.91348374 138.05142437 274.97420891 133.3125 272 C125.7274143 267.26800743 118.08432661 262.65163157 110.375 258.125 C98.32885273 251.03488573 98.32885273 251.03488573 93.125 247.8125 C92.30257812 247.30332031 91.48015625 246.79414063 90.6328125 246.26953125 C90.09398437 245.85058594 89.55515625 245.43164062 89 245 C89 244.34 89 243.68 89 243 C88.01 242.62875 88.01 242.62875 87 242.25 C84.58528936 241.24387057 82.23046113 240.19677187 79.875 239.0625 C79.21242188 238.74410156 78.54984375 238.42570313 77.8671875 238.09765625 C76 237 76 237 74.63110352 235.58740234 C72.87605908 233.87937975 71.14180998 232.74884701 69.03515625 231.50390625 C68.24608887 231.03436523 67.45702148 230.56482422 66.64404297 230.08105469 C65.3661792 229.32937012 65.3661792 229.32937012 64.0625 228.5625 C62.23303836 227.47531857 60.40361221 226.38807741 58.57421875 225.30078125 C57.6414209 224.7485791 56.70862305 224.19637695 55.74755859 223.62744141 C51.6161552 221.18031727 47.49425214 218.71751032 43.375 216.25 C42.57626465 215.77256348 41.7775293 215.29512695 40.95458984 214.80322266 C36.01344184 211.84007465 31.10144611 208.83260353 26.20703125 205.79296875 C25.62505981 205.43218231 25.04308838 205.07139587 24.44348145 204.69967651 C21.57293884 202.9199699 18.70561393 201.1356616 15.84326172 199.34277344 C14.79541504 198.69211914 13.74756836 198.04146484 12.66796875 197.37109375 C11.74266357 196.79286865 10.8173584 196.21464355 9.86401367 195.61889648 C6.70337625 193.83233211 3.33707134 192.43017343 0 191 C0 127.97 0 64.94 0 0 Z " fill="#F8A73D" transform="translate(226,6)"/>
<path d="M0 0 C0 63.03 0 126.06 0 191 C1.98 191.33 3.96 191.66 6 192 C6.66 192.99 7.32 193.98 8 195 C7.29875 194.649375 6.5975 194.29875 5.875 193.9375 C1.67900783 192.56924169 -1.52835075 193.30396725 -5.48754883 195.17651367 C-6.30247803 195.66869385 -7.11740723 196.16087402 -7.95703125 196.66796875 C-8.89192383 197.22436035 -9.82681641 197.78075195 -10.79003906 198.35400391 C-11.78745117 198.95905762 -12.78486328 199.56411133 -13.8125 200.1875 C-15.96883206 201.47210224 -18.12642452 202.75459069 -20.28515625 204.03515625 C-21.39391113 204.69402832 -22.50266602 205.35290039 -23.64501953 206.03173828 C-28.96385818 209.15213394 -34.35635759 212.13642721 -39.75 215.125 C-50.64429099 221.18984577 -61.35462641 227.51016528 -72 234 C-75.82899704 236.33138232 -79.65847916 238.66196484 -83.48873901 240.99127197 C-84.66280707 241.70535956 -85.83673699 242.41967433 -87.01052856 243.13421631 C-96.8811186 249.14119139 -106.80578524 255.05336988 -116.75 260.9375 C-127.98494762 267.58709109 -139.14817299 274.32440492 -150.13916016 281.37158203 C-151.63473093 282.32966688 -153.1319507 283.28518283 -154.63085938 284.23803711 C-156.04615029 285.13779849 -157.45785418 286.04323679 -158.86523438 286.95532227 C-163.66193935 290 -163.66193935 290 -167 290 C-167 290.66 -167 291.32 -167 292 C-169.0588761 293.42812215 -171.09770934 294.7279824 -173.25 296 C-173.83652344 296.35578125 -174.42304688 296.7115625 -175.02734375 297.078125 C-177.96136621 298.84513179 -180.90586899 300.52952189 -184 302 C-185.43724209 290.34236968 -181.68996356 282.75119164 -176 273 C-175.16275391 271.55367188 -175.16275391 271.55367188 -174.30859375 270.078125 C-173.34155467 268.4520854 -172.36064823 266.83417828 -171.36328125 265.2265625 C-169.99927403 262.99881433 -168.74321544 260.73448853 -167.5 258.4375 C-165.33400078 254.48280464 -162.87907587 250.78787679 -160.34375 247.0625 C-158.66175998 244.48084091 -157.35222777 241.76592045 -156 239 C-155.401875 238.113125 -154.80375 237.22625 -154.1875 236.3125 C-149.10437968 228.61520352 -145.05556042 220.27262546 -141 212 C-140.34 212 -139.68 212 -139 212 C-138.72671875 211.26910156 -138.4534375 210.53820312 -138.171875 209.78515625 C-137.05625597 207.13370168 -135.77973951 204.86781197 -134.25 202.4375 C-128.02128754 192.61112918 -128.02128754 192.61112918 -124.45703125 181.7109375 C-124.30621094 180.81632813 -124.15539062 179.92171875 -124 179 C-122 177.875 -122 177.875 -120 177 C-119.65932381 175.66852389 -119.32710453 174.33487509 -119 173 C-117.84375 171.18359375 -117.84375 171.18359375 -116.5 169.4375 C-114.76352292 167.17099358 -113.92509236 165.77527707 -113 163 C-112.34 163 -111.68 163 -111 163 C-110.68095703 161.81664062 -110.68095703 161.81664062 -110.35546875 160.609375 C-108.54818706 155.79690155 -105.97375513 151.63507183 -103.3125 147.25 C-102.13410203 145.2833392 -100.95707612 143.31585579 -99.78125 141.34765625 C-99.16378906 140.31527832 -98.54632813 139.28290039 -97.91015625 138.21923828 C-94.65840563 132.73897452 -91.48719536 127.21264051 -88.3125 121.6875 C-81.62889401 110.07383626 -74.86347369 98.51266618 -68.02734375 86.98828125 C-66.95548182 85.17983408 -65.88387407 83.37123624 -64.8125 81.5625 C-63.99712769 80.1861438 -63.99712769 80.1861438 -63.1652832 78.78198242 C-58.90641826 71.5750056 -54.72858072 64.32339893 -50.5625 57.0625 C-43.58276921 44.91410295 -36.39479916 32.90034939 -29 21 C-28.3920459 20.01620361 -27.7840918 19.03240723 -27.15771484 18.01879883 C-26.54621582 17.04064209 -25.9347168 16.06248535 -25.3046875 15.0546875 C-24.47686768 13.72606689 -24.47686768 13.72606689 -23.63232422 12.37060547 C-17.98202748 4.16474526 -9.84044198 0 0 0 Z " fill="#B43371" transform="translate(226,6)"/>
<path d="M0 0 C8.01716864 5.68513059 12.37611994 12.43695356 15.484375 21.76171875 C15.484375 26.71171875 15.484375 31.66171875 15.484375 36.76171875 C-2.995625 36.76171875 -21.475625 36.76171875 -40.515625 36.76171875 C-37.38256975 48.07485399 -37.38256975 48.07485399 -29.015625 54.57421875 C-21.95881223 57.87851661 -15.10123621 57.81976796 -7.703125 55.63671875 C-4.41259341 53.70111193 -1.87700295 51.56309999 0.80859375 48.87109375 C2.484375 47.76171875 2.484375 47.76171875 4.51953125 47.9921875 C7.03101571 48.97581064 9.21542604 50.31211247 11.484375 51.76171875 C10.99309899 56.01944421 8.53435969 58.94356187 5.484375 61.76171875 C-4.39395051 68.62950696 -14.68814385 69.89967497 -26.515625 68.76171875 C-36.01676915 66.43444682 -44.52866719 60.81799434 -49.953125 52.578125 C-50.9391725 50.66040763 -51.76079422 48.78007061 -52.515625 46.76171875 C-52.86882812 46.04886719 -53.22203125 45.33601563 -53.5859375 44.6015625 C-56.46809056 35.7976748 -55.89492398 23.08281672 -51.765625 14.82421875 C-51.146875 13.80328125 -51.146875 13.80328125 -50.515625 12.76171875 C-50.103125 12.06046875 -49.690625 11.35921875 -49.265625 10.63671875 C-38.68404504 -5.23565119 -16.22006228 -9.61105901 0 0 Z " fill="#F7F8F8" transform="translate(340.515625,428.23828125)"/>
<path d="M0 0 C4.62 0 9.24 0 14 0 C17.3813909 6.41985773 20.09072895 13.02029674 22.74536133 19.76965332 C24.0510811 23.08802332 25.369096 26.40149673 26.6875 29.71484375 C26.95856567 30.39644562 27.22963135 31.07804749 27.50891113 31.78030396 C30.91791244 40.33211709 34.45302627 48.83142796 37.99023438 57.33081055 C39.33052235 60.55235445 40.66576592 63.77594521 42 67 C42.40605469 67.97001953 42.81210938 68.94003906 43.23046875 69.93945312 C43.59785156 70.83083984 43.96523437 71.72222656 44.34375 72.640625 C44.66537109 73.41438477 44.98699219 74.18814453 45.31835938 74.98535156 C46 77 46 77 46 80 C46.66 80 47.32 80 48 80 C48.0825 79.01 48.165 78.02 48.25 77 C48.76601142 73.43033193 50.08515213 70.69144979 51.78442383 67.5065918 C53.2910153 64.3999088 54.45929947 61.19789204 55.63671875 57.95703125 C59.22321586 48.2460633 63.17042756 38.69056774 67.125 29.125 C68.52429001 25.73212197 69.92228426 22.33871059 71.3203125 18.9453125 C71.81232147 17.75219452 71.81232147 17.75219452 72.31427002 16.53497314 C74.57934425 11.03756265 76.80939618 5.52758581 79 0 C83.95 0 88.9 0 94 0 C92.60402075 4.18793775 91.17084778 8.08521424 89.42578125 12.11328125 C88.9263501 13.27093994 88.42691895 14.42859863 87.91235352 15.62133789 C87.6509256 16.22446808 87.38949768 16.82759827 87.12014771 17.44900513 C85.7571175 20.59394045 84.40169026 23.74214368 83.046875 26.890625 C82.78064835 27.50905777 82.51442169 28.12749054 82.24012756 28.7646637 C79.61441791 34.87577084 77.08724838 41.02385668 74.59765625 47.19140625 C73.39491725 50.11961011 72.09048459 52.99018575 70.76171875 55.86328125 C66.82745551 64.45900782 63.34566079 73.24847507 59.78222656 82.00244141 C58.85166676 84.28632803 57.91814327 86.56898622 56.984375 88.8515625 C56.69898865 89.55560211 56.41360229 90.25964172 56.11956787 90.98501587 C54.11297102 95.88702898 54.11297102 95.88702898 53 97 C50.64686445 97.07271741 48.29166332 97.08370868 45.9375 97.0625 C44.00197266 97.04896484 44.00197266 97.04896484 42.02734375 97.03515625 C41.02832031 97.02355469 40.02929688 97.01195312 39 97 C38.66492432 96.18474854 38.32984863 95.36949707 37.98461914 94.52954102 C36.34454447 90.54026725 34.70371413 86.5513051 33.0625 82.5625 C32.75576355 81.81691833 32.4490271 81.07133667 32.13299561 80.30316162 C28.29175679 70.96829094 24.4388188 61.63839148 20.56640625 52.31640625 C20.19610794 51.42472244 19.82580963 50.53303864 19.44429016 49.61433411 C17.64437864 45.28065167 15.84299748 40.94758931 14.03930664 36.61547852 C10.4812835 28.06030287 6.95927195 19.49090329 3.4921875 10.8984375 C3.1419754 10.03707184 2.79176331 9.17570618 2.43093872 8.28823853 C1.95248001 7.09634415 1.95248001 7.09634415 1.46435547 5.88037109 C1.18091278 5.17786224 0.89747009 4.47535339 0.60543823 3.7515564 C0 2 0 2 0 0 Z " fill="#F8F8F8" transform="translate(96,399)"/>
<path d="M0 0 C4.29 0 8.58 0 13 0 C13 6.6 13 13.2 13 20 C19.6 20 26.2 20 33 20 C33 23.63 33 27.26 33 31 C26.4 31 19.8 31 13 31 C13.05102269 37.19415427 13.11391531 43.38578283 13.20751953 49.57910156 C13.23574279 51.6857896 13.25695056 53.7925838 13.27099609 55.89941406 C13.29240661 58.9282878 13.3390476 61.95588331 13.390625 64.984375 C13.39185364 65.92617615 13.39308228 66.86797729 13.39434814 67.83831787 C13.48158995 73.04932575 13.48158995 73.04932575 15.79589844 77.60644531 C20.52104641 80.59394471 26.78253229 79.04349354 32 78 C35.05023923 83.36842105 35.05023923 83.36842105 34.8359375 86.0625 C33.41484599 89.3562448 30.78912723 89.95819573 27.6015625 91.23828125 C21.35629203 93.06685143 14.82972784 92.72953979 8.82421875 90.18359375 C4.94729952 87.66816221 1.79770318 83.59770364 0.4365387 79.1651001 C-0.03511054 76.82586232 -0.12007987 74.70907255 -0.11352539 72.32324219 C-0.11344986 71.40258972 -0.11337433 70.48193726 -0.11329651 69.53338623 C-0.10813522 68.54783752 -0.10297394 67.56228882 -0.09765625 66.546875 C-0.0962413 65.53151672 -0.09482635 64.51615845 -0.09336853 63.47003174 C-0.08777516 60.22999108 -0.07522385 56.99001975 -0.0625 53.75 C-0.05748414 51.55208433 -0.05292139 49.35416758 -0.04882812 47.15625 C-0.0378079 41.77080666 -0.02054778 36.38541508 0 31 C-4.29 31 -8.58 31 -13 31 C-13 27.37 -13 23.74 -13 20 C-8.71 20 -4.42 20 0 20 C0 13.4 0 6.8 0 0 Z " fill="#F6F7F7" transform="translate(242,405)"/>
<path d="M0 0 C4.29 0 8.58 0 13 0 C13 23.43 13 46.86 13 71 C8.71 71 4.42 71 0 71 C0 47.57 0 24.14 0 0 Z " fill="#F5F5F6" transform="translate(202,425)"/>
<path d="M0 0 C5.3183315 2.68817483 8.50549277 7.26098555 11.125 12.5 C11.125 14.48 11.125 16.46 11.125 18.5 C-3.395 18.5 -17.915 18.5 -32.875 18.5 C-31.79822122 10.96254857 -30.0408683 6.98490906 -24.25 2.140625 C-17.15955364 -2.75178299 -7.97173216 -3.07752245 0 0 Z " fill="#353A3D" transform="translate(331.875,436.5)"/>
<path d="M0 0 C0.75650018 -0.00085442 1.51300037 -0.00170885 2.2924248 -0.00258917 C4.81660717 -0.00423074 7.34072247 0.00125567 9.86489868 0.00672913 C11.67856851 0.00701131 13.49223844 0.00685265 15.3059082 0.00628662 C20.22276149 0.00599986 25.13959035 0.01187701 30.05643797 0.01886058 C35.19739375 0.02511429 40.33835009 0.02569951 45.47930908 0.02688599 C55.21142248 0.02999334 64.94352463 0.03819873 74.67563307 0.04823548 C85.75657558 0.05941508 96.83751863 0.06491172 107.91846538 0.06993091 C130.71002359 0.08038182 153.50157184 0.09796976 176.29312134 0.12025452 C176.29312134 0.45025452 176.29312134 0.78025452 176.29312134 1.12025452 C168.84229169 1.25208447 161.39143936 1.38256308 153.94055748 1.51140594 C150.47929112 1.57129975 147.01803352 1.63162611 143.55679321 1.69300842 C139.56007134 1.76386675 135.56331698 1.83272242 131.56655884 1.90150452 C130.34826385 1.9233783 129.12996887 1.94525208 127.87475586 1.9677887 C120.66152217 2.09015644 113.45844707 2.11740448 106.2444458 2.0302887 C103.72130849 2.107202 101.68943609 2.37719845 99.29312134 3.12025452 C99.29312134 2.46025452 99.29312134 1.80025452 99.29312134 1.12025452 C98.30312134 1.45025452 97.31312134 1.78025452 96.29312134 2.12025452 C94.14450105 2.19267789 91.99363782 2.20403171 89.84390259 2.18275452 C88.53123413 2.17437561 87.21856567 2.1659967 85.86611938 2.15736389 C84.82262833 2.14805847 84.82262833 2.14805847 83.75805664 2.13856506 C69.92279862 2.02086994 56.14824968 2.29196029 42.32901001 3.02845764 C39.01990903 3.17766282 35.75098176 3.0613844 32.44546509 2.90150452 C17.05155172 2.19600779 1.7019396 1.99737718 -13.70687866 2.12025452 C-13.70687866 1.79025452 -13.70687866 1.46025452 -13.70687866 1.12025452 C-9.10907711 0.22110586 -4.66880736 -0.01947076 0 0 Z " fill="#515F8B" transform="translate(84.70687866210938,325.87974548339844)"/>
<path d="M0 0 C4.29085983 0.87568568 6.18527073 2.33673797 9.0625 5.625 C10.07417377 9.49541858 9.63982103 12.62096343 7.625 16.125 C3.80567604 18.36070183 0.37731639 18.38504105 -3.9375 17.625 C-6.5 16.125 -6.5 16.125 -7.9375 13.625 C-8.6527453 8.61828289 -8.74898802 6.77063015 -5.8125 2.625 C-2.9375 0.625 -2.9375 0.625 0 0 Z " fill="#F6F7F7" transform="translate(207.9375,394.375)"/>
<path d="M0 0 C0.66 0.33 1.32 0.66 2 1 C-15.5546875 31.09375 -15.5546875 31.09375 -17.28222656 34.05517578 C-18.43269805 36.02745934 -19.58308794 37.99979051 -20.73339844 39.97216797 C-23.72400024 45.09975162 -26.7161678 50.22641184 -29.7109375 55.3515625 C-35.85712825 65.87303523 -41.99063233 76.39962473 -48 87 C-49.06528748 84.26980214 -49.07998186 83.20701188 -48.00390625 80.421875 C-47.52824219 79.54015625 -47.05257812 78.6584375 -46.5625 77.75 C-46.08941406 76.85796875 -45.61632812 75.9659375 -45.12890625 75.046875 C-44.75636719 74.37140625 -44.38382812 73.6959375 -44 73 C-43.34 73 -42.68 73 -42 73 C-41.773125 72.175 -41.54625 71.35 -41.3125 70.5 C-40.03245055 67.08653481 -38.51011881 64.47968473 -36.54296875 61.4453125 C-34.66711034 58.47243309 -32.92277996 55.43103946 -31.1875 52.375 C-30.84783203 51.7778418 -30.50816406 51.18068359 -30.15820312 50.56542969 C-29.10438187 48.71090126 -28.05214981 46.85547712 -27 45 C-22.42462986 36.94341643 -17.80194556 28.92452218 -13 21 C-11.99922957 19.33379583 -10.99923851 17.66712332 -10 16 C-9.51144531 15.18660156 -9.02289063 14.37320313 -8.51953125 13.53515625 C-7.45140266 11.75311139 -6.38659264 9.96907528 -5.32421875 8.18359375 C-4.51404297 6.82427734 -4.51404297 6.82427734 -3.6875 5.4375 C-3.19636719 4.61121094 -2.70523438 3.78492187 -2.19921875 2.93359375 C-1 1 -1 1 0 0 Z " fill="#6C8F9F" transform="translate(163,82)"/>
<path d="M0 0 C0.66 0.33 1.32 0.66 2 1 C0.7550659 3.54425853 -0.49573888 6.08534361 -1.75 8.625 C-2.09804687 9.33785156 -2.44609375 10.05070313 -2.8046875 10.78515625 C-4.9334707 15.08214456 -7.11599953 19.15870526 -10 23 C-10.66 23 -11.32 23 -12 23 C-12.185625 23.928125 -12.37125 24.85625 -12.5625 25.8125 C-13.88487657 30.51216925 -16.58560699 34.24522175 -19.2578125 38.28125 C-20.76012129 40.62566013 -22.04430173 42.93263848 -23.25 45.4375 C-24.68380891 48.35632529 -26.07693743 50.44073628 -28 53 C-28.92179983 54.56835802 -29.81802265 56.15204163 -30.6875 57.75 C-31.12449219 58.54921875 -31.56148438 59.3484375 -32.01171875 60.171875 C-32.33785156 60.77515625 -32.66398437 61.3784375 -33 62 C-33.99 62 -34.98 62 -36 62 C-35.67 61.01 -35.34 60.02 -35 59 C-34.34 59 -33.68 59 -33 59 C-32.67 57.35 -32.34 55.7 -32 54 C-31.34 54 -30.68 54 -30 54 C-29.67 52.35 -29.34 50.7 -29 49 C-28.34 49 -27.68 49 -27 49 C-27 47.68 -27 46.36 -27 45 C-25 43 -25 43 -23 42 C-23.103125 41.319375 -23.20625 40.63875 -23.3125 39.9375 C-22.87464318 35.8216459 -20.83258179 32.97850267 -18 30 C-17.34 30 -16.68 30 -16 30 C-15.731875 28.865625 -15.46375 27.73125 -15.1875 26.5625 C-14.795625 25.386875 -14.40375 24.21125 -14 23 C-13.01 22.67 -12.02 22.34 -11 22 C-9.81664605 19.11681225 -9.81664605 19.11681225 -9 16 C-8 13 -8 13 -6.5 11.5625 C-4.86949335 10.12673845 -4.86949335 10.12673845 -4.5625 8.1875 C-3.74148137 4.99464979 -1.88190341 2.67108871 0 0 Z " fill="#6B5E94" transform="translate(97,195)"/>
<path d="M0 0 C0.33 0 0.66 0 1 0 C1.17114733 6.39572122 1.33746632 12.79155406 1.5 19.1875 C1.52400879 20.12938171 1.54801758 21.07126343 1.57275391 22.04168701 C1.85393479 33.20786747 2.07915056 44.36063174 1.97827148 55.53100586 C1.94913045 60.46537831 2.16990952 65.33186735 2.5625 70.25 C2.93028579 74.94437693 2.94994901 79.20963745 2.2578125 83.859375 C1.7724738 87.8891569 1.92386383 91.94786386 2 96 C1.34 96 0.68 96 0 96 C0 64.32 0 32.64 0 0 Z " fill="#F07452" transform="translate(226,101)"/>
<path d="M0 0 C34.98 0 69.96 0 106 0 C106 0.33 106 0.66 106 1 C98.54917035 1.13182995 91.09831802 1.26230857 83.64743614 1.39115143 C80.18616978 1.45104523 76.72491218 1.51137159 73.26367188 1.57275391 C69.26695 1.64361223 65.27019565 1.7124679 61.2734375 1.78125 C60.05514252 1.80312378 58.83684753 1.82499756 57.58163452 1.84753418 C50.36840083 1.96990192 43.16532573 1.99714996 35.95132446 1.91003418 C33.42818716 1.98694748 31.39631476 2.25694393 29 3 C29 2.34 29 1.68 29 1 C28.01 1.33 27.02 1.66 26 2 C22.17051591 2.23137114 18.33574434 2.18516398 14.5 2.1875 C12.91251953 2.20586914 12.91251953 2.20586914 11.29296875 2.22460938 C10.27847656 2.22654297 9.26398438 2.22847656 8.21875 2.23046875 C7.28998047 2.23457764 6.36121094 2.23868652 5.40429688 2.24291992 C3 2 3 2 0 0 Z " fill="#676697" transform="translate(155,326)"/>
<path d="M0 0 C18.15 0 36.3 0 55 0 C54.67 0.66 54.34 1.32 54 2 C53.40531418 1.99777939 52.81062836 1.99555878 52.19792175 1.99327087 C46.01761474 1.97117556 39.83731892 1.95607558 33.65698242 1.94506836 C31.3493606 1.94003449 29.04174197 1.93320695 26.73413086 1.92456055 C23.42040214 1.91245365 20.10671552 1.90676227 16.79296875 1.90234375 C15.7585112 1.89718246 14.72405365 1.89202118 13.6582489 1.88670349 C12.6974794 1.88662796 11.7367099 1.88655243 10.74682617 1.88647461 C9.90077316 1.884254 9.05472015 1.88203339 8.18302917 1.87974548 C5.81944209 1.91375879 5.81944209 1.91375879 3 3 C2.67 3.66 2.34 4.32 2 5 C1.34 5 0.68 5 0 5 C0 3.35 0 1.7 0 0 Z " fill="#2E3334" transform="translate(300,465)"/>
<path d="M0 0 C1.16086095 3.48258286 0.95898559 6.02536017 0.8125 9.6875 C0.79378788 15.74398833 1.05554699 20.24897817 5 25 C10.57453649 30.39315244 16.12965031 32.80934238 23.96484375 33.1953125 C25.27582031 33.17210937 26.58679688 33.14890625 27.9375 33.125 C28.96327148 33.11146484 28.96327148 33.11146484 30.00976562 33.09765625 C31.67333287 33.07438958 33.33671631 33.03853167 35 33 C35 33.66 35 34.32 35 35 C24.57848238 36.39967828 16.69828635 36.26973396 7.68359375 30.5234375 C2.23066668 26.28561941 -0.08205183 21.53845968 -2 15 C-2.309375 13.989375 -2.61875 12.97875 -2.9375 11.9375 C-3.029437 7.61646121 -1.56768311 3.98563502 0 0 Z " fill="#3F4177" transform="translate(42,292)"/>
<path d="M0 0 C0.66 0.33 1.32 0.66 2 1 C-0.97 3.475 -0.97 3.475 -4 6 C-2.84826645 3.53199953 -1.95216435 1.95216435 0 0 Z M-5 6 C-5 13.00102143 -10.82521629 19.71227392 -14.4375 25.5 C-15.29698242 26.88638672 -15.29698242 26.88638672 -16.17382812 28.30078125 C-19.04411854 32.91834857 -21.94781135 37.50045899 -25 42 C-25.33 41.34 -25.66 40.68 -26 40 C-25.13891602 38.14331055 -25.13891602 38.14331055 -23.75390625 35.88671875 C-23.24964111 35.0563208 -22.74537598 34.22592285 -22.22583008 33.37036133 C-21.67693115 32.48501709 -21.12803223 31.59967285 -20.5625 30.6875 C-19.74011841 29.3411145 -19.74011841 29.3411145 -18.90112305 27.9675293 C-17.79375289 26.1568404 -16.68285175 24.34830603 -15.56835938 22.54199219 C-14.18882622 20.30604897 -12.8183184 18.06502677 -11.453125 15.8203125 C-6.19203897 7.19203897 -6.19203897 7.19203897 -5 6 Z " fill="#E4554C" transform="translate(208,12)"/>
<path d="M0 0 C2 2 2 2 2.125 4.625 C2.08375 5.40875 2.0425 6.1925 2 7 C1.01 6.67 0.02 6.34 -1 6 C-1 6.66 -1 7.32 -1 8 C12.86 8 26.72 8 41 8 C41 6.35 41 4.7 41 3 C41.33 3 41.66 3 42 3 C42 4.98 42 6.96 42 9 C27.48 9 12.96 9 -2 9 C-1 2 -1 2 0 0 Z " fill="#565B5C" transform="translate(301,446)"/>
<path d="M0 0 C0.33 0 0.66 0 1 0 C1.36928281 3.64446427 1.71761812 7.29065223 2.0625 10.9375 C2.16626953 11.95908203 2.27003906 12.98066406 2.37695312 14.03320312 C2.88593947 19.52674543 3.02495635 24.60112413 2.26000977 30.06811523 C1.92255263 32.57543756 1.90190697 35.03539505 1.9375 37.5625 C1.94652344 38.40941406 1.95554688 39.25632813 1.96484375 40.12890625 C1.97644531 40.74636719 1.98804688 41.36382812 2 42 C1.34 42 0.68 42 0 42 C0 28.14 0 14.28 0 0 Z " fill="#EB635B" transform="translate(226,155)"/>
<path d="M0 0 C0.33 0.66 0.66 1.32 1 2 C-0.07641602 4.27148438 -0.07641602 4.27148438 -1.75390625 7.09375 C-2.36169922 8.125 -2.96949219 9.15625 -3.59570312 10.21875 C-4.24474609 11.3015625 -4.89378906 12.384375 -5.5625 13.5 C-6.18447266 14.551875 -6.80644531 15.60375 -7.44726562 16.6875 C-8.68695781 18.78085692 -9.93251205 20.87075407 -11.18408203 22.95703125 C-12.38296568 24.9660237 -13.56661474 26.98419593 -14.73388672 29.01171875 C-15.26385254 29.92566406 -15.79381836 30.83960937 -16.33984375 31.78125 C-16.80640381 32.59658203 -17.27296387 33.41191406 -17.75366211 34.25195312 C-18.16495361 34.82880859 -18.57624512 35.40566406 -19 36 C-19.66 36 -20.32 36 -21 36 C-19.42497376 31.58655748 -17.13281801 27.72188652 -14.6875 23.75 C-12.12350774 19.54137525 -9.59118253 15.33829351 -7.25 11 C-5.12176573 7.09205763 -2.65693829 3.56788856 0 0 Z " fill="#6B8993" transform="translate(185,45)"/>
<path d="M0 0 C3.0495702 2.05208482 4.71026595 3.80725771 6.3828125 7.0703125 C8.15038666 10.41448154 9.97769406 13.68919872 11.9296875 16.9296875 C12.414375 17.744375 12.8990625 18.5590625 13.3984375 19.3984375 C14.39927679 21.07709388 15.40733171 22.75146534 16.421875 24.421875 C16.89882813 25.22882813 17.37578125 26.03578125 17.8671875 26.8671875 C18.51856689 27.95169189 18.51856689 27.95169189 19.18310547 29.05810547 C20 31 20 31 19 34 C18.60208252 33.31486328 18.20416504 32.62972656 17.79418945 31.92382812 C15.96830472 28.78176824 14.14041771 25.64087758 12.3125 22.5 C11.68666016 21.42234375 11.06082031 20.3446875 10.41601562 19.234375 C7.69242106 14.55720738 4.96345149 9.90114529 2.04296875 5.34375 C0 2 0 2 0 0 Z " fill="#739FA3" transform="translate(304,109)"/>
<path d="M0 0 C15.18 0 30.36 0 46 0 C46 0.33 46 0.66 46 1 C42.06254264 1.16768422 38.12502757 1.3339732 34.1875 1.5 C32.50817383 1.57154297 32.50817383 1.57154297 30.79492188 1.64453125 C29.18520508 1.71220703 29.18520508 1.71220703 27.54296875 1.78125 C26.55321045 1.82314453 25.56345215 1.86503906 24.54370117 1.90820312 C21.19457473 2.02906612 17.89481752 1.96079557 14.55078125 1.78125 C13.70322266 1.73613281 12.85566406 1.69101562 11.98242188 1.64453125 C11.10134766 1.59683594 10.22027344 1.54914063 9.3125 1.5 C8.41982422 1.45230469 7.52714844 1.40460938 6.60742188 1.35546875 C4.40490896 1.23768731 2.20243811 1.11917063 0 1 C0 0.67 0 0.34 0 0 Z " fill="#648C9B" transform="translate(103,327)"/>
<path d="M0 0 C0.66 0.33 1.32 0.66 2 1 C1.484375 1.7425 0.96875 2.485 0.4375 3.25 C-2.44855281 7.51723522 -4.84880151 12.06840723 -7.31640625 16.5859375 C-7.87199219 17.38257813 -8.42757812 18.17921875 -9 19 C-9.99 19 -10.98 19 -12 19 C-11.505 17.515 -11.505 17.515 -11 16 C-10.34 16 -9.68 16 -9 16 C-8.67 14.35 -8.34 12.7 -8 11 C-7.34 11 -6.68 11 -6 11 C-5.67 9.35 -5.34 7.7 -5 6 C-4.34 6 -3.68 6 -3 6 C-3 4.68 -3 3.36 -3 2 C-2.01 1.34 -1.02 0.68 0 0 Z " fill="#5D5891" transform="translate(73,238)"/>
<path d="M0 0 C1.91635217 -0.05423638 3.83314925 -0.09289963 5.75 -0.125 C7.35101563 -0.15980469 7.35101563 -0.15980469 8.984375 -0.1953125 C11.92470106 -0.00487687 13.52361878 0.47329896 16 2 C16 2.33 16 2.66 16 3 C10.39 3 4.78 3 -1 3 C-0.67 2.01 -0.34 1.02 0 0 Z " fill="#343A3D" transform="translate(260,422)"/>
<path d="M0 0 C0.33 0 0.66 0 1 0 C0.98839844 0.83144531 0.97679687 1.66289062 0.96484375 2.51953125 C0.95582031 3.60621094 0.94679687 4.69289063 0.9375 5.8125 C0.92589844 6.89144531 0.91429687 7.97039062 0.90234375 9.08203125 C0.86375234 12.06512169 0.86375234 12.06512169 2 15 C1.5625 17.1875 1.5625 17.1875 1 19 C0.34 19 -0.32 19 -1 19 C-1.02705308 16.58325776 -1.04686438 14.1668206 -1.0625 11.75 C-1.07087891 11.06808594 -1.07925781 10.38617188 -1.08789062 9.68359375 C-1.10428392 6.30657446 -1.05628768 3.22708361 0 0 Z " fill="#33383C" transform="translate(216,459)"/>
<path d="M0 0 C0.33 0 0.66 0 1 0 C0.5317879 4.77576339 -0.24331998 8.04476345 -3 12 C-3.99 11.67 -4.98 11.34 -6 11 C-5.34 11 -4.68 11 -4 11 C-4.0825 10.29875 -4.165 9.5975 -4.25 8.875 C-3.917484 5.05106601 -2.30534909 3.00393972 0 0 Z " fill="#67779A" transform="translate(78,226)"/>
<path d="M0 0 C1.18224668 3.54674003 0.89329634 5.97522995 0.5625 9.6875 C0.40974609 11.45673828 0.40974609 11.45673828 0.25390625 13.26171875 C0.12822266 14.61716797 0.12822266 14.61716797 0 16 C-0.66 15.67 -1.32 15.34 -2 15 C-3.81278094 9.42221251 -2.05075703 5.21378905 0 0 Z " fill="#45477E" transform="translate(42,292)"/>
<path d="M0 0 C3.63 0 7.26 0 11 0 C10.67 0.99 10.34 1.98 10 3 C6.37 2.67 2.74 2.34 -1 2 C-0.67 1.34 -0.34 0.68 0 0 Z " fill="#31373A" transform="translate(321,421)"/>
<path d="M0 0 C6.27 0 12.54 0 19 0 C19 0.33 19 0.66 19 1 C17.87980469 1.04898437 16.75960938 1.09796875 15.60546875 1.1484375 C14.13278797 1.22347856 12.66013293 1.29902582 11.1875 1.375 C10.44951172 1.4059375 9.71152344 1.436875 8.95117188 1.46875 C5.18106885 1.67346148 3.20349259 1.86433827 0 4 C0 2.68 0 1.36 0 0 Z " fill="#2A2F31" transform="translate(256,437)"/>
<path d="M0 0 C-1.37154504 2.95409701 -2.98863724 5.44008376 -5 8 C-5.66 7.67 -6.32 7.34 -7 7 C-6.22006468 2.47637516 -4.81844319 0 0 0 Z " fill="#31373B" transform="translate(297,431)"/>
<path d="M0 0 C0.8125 1.625 0.8125 1.625 1 4 C-0.46818136 6.24609835 -2.15852858 8.02378677 -4 10 C-4.66 9.34 -5.32 8.68 -6 8 C-4.625 6 -4.625 6 -3 4 C-2.34 4 -1.68 4 -1 4 C-0.67 2.68 -0.34 1.36 0 0 Z " fill="#747298" transform="translate(107,179)"/>
<path d="M0 0 C0.33 0 0.66 0 1 0 C1 1.98 1 3.96 1 6 C-2.96 6 -6.92 6 -11 6 C-11 5.67 -11 5.34 -11 5 C-6.545 4.505 -6.545 4.505 -2 4 C-1.67 3.01 -1.34 2.02 -1 1 C-0.67 0.67 -0.34 0.34 0 0 Z " fill="#373C3F" transform="translate(241,419)"/>
<path d="M0 0 C0.66 0.33 1.32 0.66 2 1 C0.68 3.64 -0.64 6.28 -2 9 C-2.99 8.67 -3.98 8.34 -5 8 C-3.35 5.36 -1.7 2.72 0 0 Z " fill="#6E7E9D" transform="translate(97,195)"/>
<path d="M0 0 C2.31 0.33 4.62 0.66 7 1 C7 1.99 7 2.98 7 4 C4.625 3.6875 4.625 3.6875 2 3 C1.34 2.01 0.68 1.02 0 0 Z " fill="#3B4042" transform="translate(308,480)"/>
</svg>
